%TF.GenerationSoftware,KiCad,Pcbnew,10.0.6*%
%TF.CreationDate,2026-09-09T17:54:03+02:00*%
%TF.ProjectId,4mb mapper nms8280,346d6220-6d61-4707-9065-72206e6d7338,rev?*%
%TF.SameCoordinates,PX7489fc0PY52f83c0*%
%TF.FileFunction,Paste,Top*%
%TF.FilePolarity,Positive*%
%FSLAX46Y46*%
G04 Gerber Fmt 4.6, Leading zero omitted, Abs format (unit mm)*
G04 Created by KiCad (PCBNEW 10.0.6) date 2026-09-09 17:54:03*
%MOMM*%
%LPD*%
G01*
G04 APERTURE LIST*
G04 Aperture macros list*
%AMRoundRect*
0 Rectangle with rounded corners*
0 $1 Rounding radius*
0 $2 $3 $4 $5 $6 $7 $8 $9 X,Y pos of 4 corners*
0 Add a 4 corners polygon primitive as box body*
4,1,4,$2,$3,$4,$5,$6,$7,$8,$9,$2,$3,0*
0 Add four circle primitives for the rounded corners*
1,1,$1+$1,$2,$3*
1,1,$1+$1,$4,$5*
1,1,$1+$1,$6,$7*
1,1,$1+$1,$8,$9*
0 Add four rect primitives between the rounded corners*
20,1,$1+$1,$2,$3,$4,$5,0*
20,1,$1+$1,$4,$5,$6,$7,0*
20,1,$1+$1,$6,$7,$8,$9,0*
20,1,$1+$1,$8,$9,$2,$3,0*%
G04 Aperture macros list end*
%ADD10RoundRect,0.250000X0.475000X-0.250000X0.475000X0.250000X-0.475000X0.250000X-0.475000X-0.250000X0*%
%ADD11RoundRect,0.250000X0.250000X0.475000X-0.250000X0.475000X-0.250000X-0.475000X0.250000X-0.475000X0*%
%ADD12RoundRect,0.250000X-0.250000X-0.475000X0.250000X-0.475000X0.250000X0.475000X-0.250000X0.475000X0*%
%ADD13RoundRect,0.150000X-0.150000X0.825000X-0.150000X-0.825000X0.150000X-0.825000X0.150000X0.825000X0*%
%ADD14RoundRect,0.150000X0.150000X-0.900000X0.150000X0.900000X-0.150000X0.900000X-0.150000X-0.900000X0*%
%ADD15RoundRect,0.150000X0.150000X-0.825000X0.150000X0.825000X-0.150000X0.825000X-0.150000X-0.825000X0*%
%ADD16RoundRect,0.150000X0.150000X-1.050000X0.150000X1.050000X-0.150000X1.050000X-0.150000X-1.050000X0*%
G04 APERTURE END LIST*
D10*
%TO.C,C2*%
X29800000Y-30450000D03*
X29800000Y-28550000D03*
%TD*%
D11*
%TO.C,C131B1*%
X59950000Y10300000D03*
X58050000Y10300000D03*
%TD*%
D12*
%TO.C,C147B1*%
X10700000Y-10500000D03*
X12600000Y-10500000D03*
%TD*%
D13*
%TO.C,IC180B1*%
X69010000Y21575000D03*
X67740000Y21575000D03*
X66470000Y21575000D03*
X65200000Y21575000D03*
X63930000Y21575000D03*
X62660000Y21575000D03*
X61390000Y21575000D03*
X61390000Y16625000D03*
X62660000Y16625000D03*
X63930000Y16625000D03*
X65200000Y16625000D03*
X66470000Y16625000D03*
X67740000Y16625000D03*
X69010000Y16625000D03*
%TD*%
D14*
%TO.C,U2*%
X11840000Y-30168830D03*
X13110000Y-30168830D03*
X14380000Y-30168830D03*
X15650000Y-30168830D03*
X16920000Y-30168830D03*
X18185000Y-30168830D03*
X20725000Y-30168830D03*
X22000000Y-30168830D03*
X23270000Y-30168830D03*
X24540000Y-30168830D03*
X25810000Y-30168830D03*
X27080000Y-30168830D03*
X27080000Y-22968830D03*
X25810000Y-22968830D03*
X24540000Y-22968830D03*
X23270000Y-22968830D03*
X22000000Y-22968830D03*
X20725000Y-22968830D03*
X18185000Y-22978830D03*
X16920000Y-22968830D03*
X15650000Y-22968830D03*
X14380000Y-22968830D03*
X13110000Y-22968830D03*
X11840000Y-22968830D03*
%TD*%
D13*
%TO.C,IC157B1*%
X49010000Y20175000D03*
X47740000Y20175000D03*
X46470000Y20175000D03*
X45200000Y20175000D03*
X43930000Y20175000D03*
X42660000Y20175000D03*
X41390000Y20175000D03*
X41390000Y15225000D03*
X42660000Y15225000D03*
X43930000Y15225000D03*
X45200000Y15225000D03*
X46470000Y15225000D03*
X47740000Y15225000D03*
X49010000Y15225000D03*
%TD*%
D11*
%TO.C,C157B1*%
X53150000Y15100000D03*
X51250000Y15100000D03*
%TD*%
D15*
%TO.C,IC131C1*%
X61990000Y-2475000D03*
X63260000Y-2475000D03*
X64530000Y-2475000D03*
X65800000Y-2475000D03*
X67070000Y-2475000D03*
X68340000Y-2475000D03*
X69610000Y-2475000D03*
X69610000Y2475000D03*
X68340000Y2475000D03*
X67070000Y2475000D03*
X65800000Y2475000D03*
X64530000Y2475000D03*
X63260000Y2475000D03*
X61990000Y2475000D03*
%TD*%
D16*
%TO.C,IC147*%
X15100000Y-5200000D03*
X16370000Y-5200000D03*
X17640000Y-5200000D03*
X18910000Y-5200000D03*
X20180000Y-5200000D03*
X21450000Y-5200000D03*
X22720000Y-5200000D03*
X23990000Y-5200000D03*
X23990000Y1300000D03*
X22720000Y1300000D03*
X21450000Y1300000D03*
X20180000Y1300000D03*
X18910000Y1300000D03*
X17640000Y1300000D03*
X16370000Y1300000D03*
X15100000Y1300000D03*
%TD*%
D12*
%TO.C,C147*%
X10850000Y1300000D03*
X12750000Y1300000D03*
%TD*%
D11*
%TO.C,C180B1*%
X72900000Y16600000D03*
X71000000Y16600000D03*
%TD*%
%TO.C,C131C1*%
X59950000Y2500000D03*
X58050000Y2500000D03*
%TD*%
D14*
%TO.C,U1*%
X11840000Y-41296915D03*
X13110000Y-41296915D03*
X14380000Y-41296915D03*
X15650000Y-41296915D03*
X16920000Y-41296915D03*
X18185000Y-41296915D03*
X20725000Y-41296915D03*
X22000000Y-41296915D03*
X23270000Y-41296915D03*
X24540000Y-41296915D03*
X25810000Y-41296915D03*
X27080000Y-41296915D03*
X27080000Y-34096915D03*
X25810000Y-34096915D03*
X24540000Y-34096915D03*
X23270000Y-34096915D03*
X22000000Y-34096915D03*
X20725000Y-34096915D03*
X18185000Y-34106915D03*
X16920000Y-34096915D03*
X15650000Y-34096915D03*
X14380000Y-34096915D03*
X13110000Y-34096915D03*
X11840000Y-34096915D03*
%TD*%
D11*
%TO.C,C149B1*%
X37550000Y5800000D03*
X35650000Y5800000D03*
%TD*%
%TO.C,C149*%
X37550000Y-2900000D03*
X35650000Y-2900000D03*
%TD*%
%TO.C,C131*%
X59600000Y-5500000D03*
X57700000Y-5500000D03*
%TD*%
D15*
%TO.C,IC131*%
X61950000Y-10450000D03*
X63220000Y-10450000D03*
X64490000Y-10450000D03*
X65760000Y-10450000D03*
X67030000Y-10450000D03*
X68300000Y-10450000D03*
X69570000Y-10450000D03*
X69570000Y-5500000D03*
X68300000Y-5500000D03*
X67030000Y-5500000D03*
X65760000Y-5500000D03*
X64490000Y-5500000D03*
X63220000Y-5500000D03*
X61950000Y-5500000D03*
%TD*%
D10*
%TO.C,C1*%
X29800000Y-41350000D03*
X29800000Y-39450000D03*
%TD*%
D15*
%TO.C,IC149B1*%
X39880000Y900000D03*
X41150000Y900000D03*
X42420000Y900000D03*
X43690000Y900000D03*
X44960000Y900000D03*
X46230000Y900000D03*
X47500000Y900000D03*
X48770000Y900000D03*
X48770000Y5850000D03*
X47500000Y5850000D03*
X46230000Y5850000D03*
X44960000Y5850000D03*
X43690000Y5850000D03*
X42420000Y5850000D03*
X41150000Y5850000D03*
X39880000Y5850000D03*
%TD*%
%TO.C,IC149*%
X39855000Y-7875000D03*
X41125000Y-7875000D03*
X42395000Y-7875000D03*
X43665000Y-7875000D03*
X44935000Y-7875000D03*
X46205000Y-7875000D03*
X47475000Y-7875000D03*
X48745000Y-7875000D03*
X48745000Y-2925000D03*
X47475000Y-2925000D03*
X46205000Y-2925000D03*
X44935000Y-2925000D03*
X43665000Y-2925000D03*
X42395000Y-2925000D03*
X41125000Y-2925000D03*
X39855000Y-2925000D03*
%TD*%
D16*
%TO.C,IC147B1*%
X14895000Y-17050000D03*
X16165000Y-17050000D03*
X17435000Y-17050000D03*
X18705000Y-17050000D03*
X19975000Y-17050000D03*
X21245000Y-17050000D03*
X22515000Y-17050000D03*
X23785000Y-17050000D03*
X23785000Y-10550000D03*
X22515000Y-10550000D03*
X21245000Y-10550000D03*
X19975000Y-10550000D03*
X18705000Y-10550000D03*
X17435000Y-10550000D03*
X16165000Y-10550000D03*
X14895000Y-10550000D03*
%TD*%
D15*
%TO.C,IC131B1*%
X61990000Y5350000D03*
X63260000Y5350000D03*
X64530000Y5350000D03*
X65800000Y5350000D03*
X67070000Y5350000D03*
X68340000Y5350000D03*
X69610000Y5350000D03*
X69610000Y10300000D03*
X68340000Y10300000D03*
X67070000Y10300000D03*
X65800000Y10300000D03*
X64530000Y10300000D03*
X63260000Y10300000D03*
X61990000Y10300000D03*
%TD*%
M02*
