M48
; DRILL file KiCad 10.0.6 date 2026-09-09T17:54:03
; FORMAT={-:-/ absolute / metric / decimal}
; #@! TF.CreationDate,2026-09-09T17:54:03+02:00
; #@! TF.GenerationSoftware,Kicad,Pcbnew,10.0.6
; #@! TF.FileFunction,Plated,1,2,PTH
FMAT,2
METRIC
; #@! TA.AperFunction,Plated,PTH,ViaDrill
T1C0.300
; #@! TA.AperFunction,Plated,PTH,ComponentDrill
T2C0.650
; #@! TA.AperFunction,Plated,PTH,ComponentDrill
T3C1.000
%
G90
G05
T1
X108.9Y-111.8
X110.6Y-111.8
X113.9Y-93.3
X116.6Y-93.3
X119.1Y-97.2
X120.1Y-97.2
X129.8Y-119.1
X130.5Y-112.8
X130.5Y-113.5
X130.5Y-114.2
X130.5Y-114.9
X130.5Y-115.6
X131.75Y-97.5
X131.9Y-85.7
X132.4Y-116.5
X132.7Y-121.0
X133.0Y-110.0
X136.6Y-111.5
X136.6Y-112.3
X137.878Y-112.3
X139.1Y-108.2
X139.1Y-111.6
X139.1Y-123.1
X140.4Y-108.2
X140.9Y-105.8
X142.9Y-107.9
X143.2Y-111.8
X143.6Y-112.8
X144.2Y-115.6
X144.7Y-105.8
X145.5Y-115.6
X146.74Y-115.56
X147.2Y-92.2
X147.3Y-97.6
X147.3Y-104.1
X148.01Y-115.6
X150.2Y-109.9
X150.2Y-121.1
X152.0Y-114.0
X152.0Y-124.95
X156.4Y-81.1
X156.4Y-89.9
X161.891Y-79.606
X162.4Y-66.8
X162.461Y-79.2
X162.978Y-68.278
X163.0Y-79.7
X163.4Y-84.4
X163.561Y-79.15
X164.1Y-76.6
X164.1Y-77.5
X164.6Y-93.2
X164.7Y-84.4
X168.4Y-84.7
X168.4Y-93.2
X168.7Y-68.3
X169.03Y-83.4
X169.7Y-84.6
X170.0Y-68.3
X170.088Y-79.788
X170.091Y-78.688
X170.3Y-83.366
X170.97Y-79.8
X171.4Y-92.4
X171.4Y-93.2
X171.9Y-94.9
X172.1Y-79.9
X172.1Y-85.15
X172.1Y-86.3
X173.6Y-68.3
X176.6Y-71.9
X178.5Y-92.5
X178.7Y-84.5
X178.9Y-76.8
X180.1Y-80.2
X180.8Y-80.2
X182.1Y-65.5
X185.5Y-80.2
X185.7Y-88.1
X186.7Y-80.2
X186.7Y-91.0
X186.73Y-78.67
X188.0Y-78.0
X192.8Y-89.5
X192.8Y-97.4
X192.9Y-81.7
X193.6Y-80.2
X194.8Y-85.8
X194.8Y-91.0
X196.35Y-70.2
T2
X197.8Y-78.42
X197.8Y-79.69
X197.8Y-80.96
X197.8Y-82.23
X197.8Y-83.5
X197.8Y-84.77
X197.8Y-86.04
X197.8Y-87.31
X197.8Y-88.58
X197.8Y-89.85
T3
X101.88Y-87.0
X101.88Y-94.62
X101.88Y-107.0
X101.88Y-114.62
X104.42Y-87.0
X104.42Y-94.62
X104.42Y-107.0
X104.42Y-114.62
X106.96Y-87.0
X106.96Y-94.62
X106.96Y-107.0
X106.96Y-114.62
X109.5Y-87.0
X109.5Y-94.62
X109.5Y-107.0
X109.5Y-114.62
X112.04Y-87.0
X112.04Y-94.62
X112.04Y-107.0
X112.04Y-114.62
X114.58Y-87.0
X114.58Y-94.62
X114.58Y-107.0
X114.58Y-114.62
X117.12Y-87.0
X117.12Y-94.62
X117.12Y-107.0
X117.12Y-114.62
X119.66Y-87.0
X119.66Y-94.62
X119.66Y-107.0
X119.66Y-114.62
X122.2Y-87.0
X122.2Y-94.62
X122.2Y-107.0
X122.2Y-114.62
X131.9Y-72.03
X131.9Y-79.65
X134.44Y-72.03
X134.44Y-79.65
X136.98Y-72.03
X136.98Y-79.65
X139.52Y-72.03
X139.52Y-79.65
X142.06Y-72.03
X142.06Y-79.65
X144.6Y-72.03
X144.6Y-79.65
X147.14Y-72.03
X147.14Y-79.65
X149.68Y-72.03
X149.68Y-79.65
X156.98Y-102.15
X156.98Y-109.77
X159.52Y-102.15
X159.52Y-109.77
X162.06Y-102.15
X162.06Y-109.77
X164.6Y-102.15
X164.6Y-109.77
X167.14Y-102.15
X167.14Y-109.77
X169.68Y-102.15
X169.68Y-109.77
X172.22Y-102.15
X172.22Y-109.77
X174.76Y-102.15
X174.76Y-109.77
X180.08Y-102.15
X180.08Y-109.77
X182.62Y-102.15
X182.62Y-109.77
X185.16Y-102.15
X185.16Y-109.77
X187.7Y-102.15
X187.7Y-109.77
X190.24Y-102.15
X190.24Y-109.77
X192.78Y-102.15
X192.78Y-109.77
X195.32Y-102.15
X195.32Y-109.77
M30
