%TF.GenerationSoftware,KiCad,Pcbnew,10.0.6*%
%TF.CreationDate,2026-09-09T17:54:03+02:00*%
%TF.ProjectId,4mb mapper nms8280,346d6220-6d61-4707-9065-72206e6d7338,rev?*%
%TF.SameCoordinates,PX7489fc0PY52f83c0*%
%TF.FileFunction,Legend,Bot*%
%TF.FilePolarity,Positive*%
%FSLAX46Y46*%
G04 Gerber Fmt 4.6, Leading zero omitted, Abs format (unit mm)*
G04 Created by KiCad (PCBNEW 10.0.6) date 2026-09-09 17:54:03*
%MOMM*%
%LPD*%
G01*
G04 APERTURE LIST*
%ADD10C,0.150000*%
%ADD11C,0.120000*%
G04 APERTURE END LIST*
D10*
X-7709524Y-23959580D02*
X-7661905Y-24007200D01*
X-7661905Y-24007200D02*
X-7519048Y-24054819D01*
X-7519048Y-24054819D02*
X-7423810Y-24054819D01*
X-7423810Y-24054819D02*
X-7280953Y-24007200D01*
X-7280953Y-24007200D02*
X-7185715Y-23911961D01*
X-7185715Y-23911961D02*
X-7138096Y-23816723D01*
X-7138096Y-23816723D02*
X-7090477Y-23626247D01*
X-7090477Y-23626247D02*
X-7090477Y-23483390D01*
X-7090477Y-23483390D02*
X-7138096Y-23292914D01*
X-7138096Y-23292914D02*
X-7185715Y-23197676D01*
X-7185715Y-23197676D02*
X-7280953Y-23102438D01*
X-7280953Y-23102438D02*
X-7423810Y-23054819D01*
X-7423810Y-23054819D02*
X-7519048Y-23054819D01*
X-7519048Y-23054819D02*
X-7661905Y-23102438D01*
X-7661905Y-23102438D02*
X-7709524Y-23150057D01*
X-8328572Y-23054819D02*
X-8519048Y-23054819D01*
X-8519048Y-23054819D02*
X-8614286Y-23102438D01*
X-8614286Y-23102438D02*
X-8709524Y-23197676D01*
X-8709524Y-23197676D02*
X-8757143Y-23388152D01*
X-8757143Y-23388152D02*
X-8757143Y-23721485D01*
X-8757143Y-23721485D02*
X-8709524Y-23911961D01*
X-8709524Y-23911961D02*
X-8614286Y-24007200D01*
X-8614286Y-24007200D02*
X-8519048Y-24054819D01*
X-8519048Y-24054819D02*
X-8328572Y-24054819D01*
X-8328572Y-24054819D02*
X-8233334Y-24007200D01*
X-8233334Y-24007200D02*
X-8138096Y-23911961D01*
X-8138096Y-23911961D02*
X-8090477Y-23721485D01*
X-8090477Y-23721485D02*
X-8090477Y-23388152D01*
X-8090477Y-23388152D02*
X-8138096Y-23197676D01*
X-8138096Y-23197676D02*
X-8233334Y-23102438D01*
X-8233334Y-23102438D02*
X-8328572Y-23054819D01*
X-9185715Y-24054819D02*
X-9185715Y-23054819D01*
X-9185715Y-23054819D02*
X-9757143Y-24054819D01*
X-9757143Y-24054819D02*
X-9757143Y-23054819D01*
X-10233334Y-24054819D02*
X-10233334Y-23054819D01*
X-10233334Y-23054819D02*
X-10804762Y-24054819D01*
X-10804762Y-24054819D02*
X-10804762Y-23054819D01*
X-11804762Y-24054819D02*
X-11233334Y-24054819D01*
X-11519048Y-24054819D02*
X-11519048Y-23054819D01*
X-11519048Y-23054819D02*
X-11423810Y-23197676D01*
X-11423810Y-23197676D02*
X-11328572Y-23292914D01*
X-11328572Y-23292914D02*
X-11233334Y-23340533D01*
X-12138096Y-23054819D02*
X-12757143Y-23054819D01*
X-12757143Y-23054819D02*
X-12423810Y-23435771D01*
X-12423810Y-23435771D02*
X-12566667Y-23435771D01*
X-12566667Y-23435771D02*
X-12661905Y-23483390D01*
X-12661905Y-23483390D02*
X-12709524Y-23531009D01*
X-12709524Y-23531009D02*
X-12757143Y-23626247D01*
X-12757143Y-23626247D02*
X-12757143Y-23864342D01*
X-12757143Y-23864342D02*
X-12709524Y-23959580D01*
X-12709524Y-23959580D02*
X-12661905Y-24007200D01*
X-12661905Y-24007200D02*
X-12566667Y-24054819D01*
X-12566667Y-24054819D02*
X-12280953Y-24054819D01*
X-12280953Y-24054819D02*
X-12185715Y-24007200D01*
X-12185715Y-24007200D02*
X-12138096Y-23959580D01*
X-13614286Y-23388152D02*
X-13614286Y-24054819D01*
X-13376191Y-23007200D02*
X-13138096Y-23721485D01*
X-13138096Y-23721485D02*
X-13757143Y-23721485D01*
X-7609524Y-4359580D02*
X-7561905Y-4407200D01*
X-7561905Y-4407200D02*
X-7419048Y-4454819D01*
X-7419048Y-4454819D02*
X-7323810Y-4454819D01*
X-7323810Y-4454819D02*
X-7180953Y-4407200D01*
X-7180953Y-4407200D02*
X-7085715Y-4311961D01*
X-7085715Y-4311961D02*
X-7038096Y-4216723D01*
X-7038096Y-4216723D02*
X-6990477Y-4026247D01*
X-6990477Y-4026247D02*
X-6990477Y-3883390D01*
X-6990477Y-3883390D02*
X-7038096Y-3692914D01*
X-7038096Y-3692914D02*
X-7085715Y-3597676D01*
X-7085715Y-3597676D02*
X-7180953Y-3502438D01*
X-7180953Y-3502438D02*
X-7323810Y-3454819D01*
X-7323810Y-3454819D02*
X-7419048Y-3454819D01*
X-7419048Y-3454819D02*
X-7561905Y-3502438D01*
X-7561905Y-3502438D02*
X-7609524Y-3550057D01*
X-8228572Y-3454819D02*
X-8419048Y-3454819D01*
X-8419048Y-3454819D02*
X-8514286Y-3502438D01*
X-8514286Y-3502438D02*
X-8609524Y-3597676D01*
X-8609524Y-3597676D02*
X-8657143Y-3788152D01*
X-8657143Y-3788152D02*
X-8657143Y-4121485D01*
X-8657143Y-4121485D02*
X-8609524Y-4311961D01*
X-8609524Y-4311961D02*
X-8514286Y-4407200D01*
X-8514286Y-4407200D02*
X-8419048Y-4454819D01*
X-8419048Y-4454819D02*
X-8228572Y-4454819D01*
X-8228572Y-4454819D02*
X-8133334Y-4407200D01*
X-8133334Y-4407200D02*
X-8038096Y-4311961D01*
X-8038096Y-4311961D02*
X-7990477Y-4121485D01*
X-7990477Y-4121485D02*
X-7990477Y-3788152D01*
X-7990477Y-3788152D02*
X-8038096Y-3597676D01*
X-8038096Y-3597676D02*
X-8133334Y-3502438D01*
X-8133334Y-3502438D02*
X-8228572Y-3454819D01*
X-9085715Y-4454819D02*
X-9085715Y-3454819D01*
X-9085715Y-3454819D02*
X-9657143Y-4454819D01*
X-9657143Y-4454819D02*
X-9657143Y-3454819D01*
X-10133334Y-4454819D02*
X-10133334Y-3454819D01*
X-10133334Y-3454819D02*
X-10704762Y-4454819D01*
X-10704762Y-4454819D02*
X-10704762Y-3454819D01*
X-11704762Y-4454819D02*
X-11133334Y-4454819D01*
X-11419048Y-4454819D02*
X-11419048Y-3454819D01*
X-11419048Y-3454819D02*
X-11323810Y-3597676D01*
X-11323810Y-3597676D02*
X-11228572Y-3692914D01*
X-11228572Y-3692914D02*
X-11133334Y-3740533D01*
X-12038096Y-3454819D02*
X-12657143Y-3454819D01*
X-12657143Y-3454819D02*
X-12323810Y-3835771D01*
X-12323810Y-3835771D02*
X-12466667Y-3835771D01*
X-12466667Y-3835771D02*
X-12561905Y-3883390D01*
X-12561905Y-3883390D02*
X-12609524Y-3931009D01*
X-12609524Y-3931009D02*
X-12657143Y-4026247D01*
X-12657143Y-4026247D02*
X-12657143Y-4264342D01*
X-12657143Y-4264342D02*
X-12609524Y-4359580D01*
X-12609524Y-4359580D02*
X-12561905Y-4407200D01*
X-12561905Y-4407200D02*
X-12466667Y-4454819D01*
X-12466667Y-4454819D02*
X-12180953Y-4454819D01*
X-12180953Y-4454819D02*
X-12085715Y-4407200D01*
X-12085715Y-4407200D02*
X-12038096Y-4359580D01*
X-12990477Y-3454819D02*
X-13609524Y-3454819D01*
X-13609524Y-3454819D02*
X-13276191Y-3835771D01*
X-13276191Y-3835771D02*
X-13419048Y-3835771D01*
X-13419048Y-3835771D02*
X-13514286Y-3883390D01*
X-13514286Y-3883390D02*
X-13561905Y-3931009D01*
X-13561905Y-3931009D02*
X-13609524Y-4026247D01*
X-13609524Y-4026247D02*
X-13609524Y-4264342D01*
X-13609524Y-4264342D02*
X-13561905Y-4359580D01*
X-13561905Y-4359580D02*
X-13514286Y-4407200D01*
X-13514286Y-4407200D02*
X-13419048Y-4454819D01*
X-13419048Y-4454819D02*
X-13133334Y-4454819D01*
X-13133334Y-4454819D02*
X-13038096Y-4407200D01*
X-13038096Y-4407200D02*
X-12990477Y-4359580D01*
X68170476Y-19324580D02*
X68218095Y-19372200D01*
X68218095Y-19372200D02*
X68360952Y-19419819D01*
X68360952Y-19419819D02*
X68456190Y-19419819D01*
X68456190Y-19419819D02*
X68599047Y-19372200D01*
X68599047Y-19372200D02*
X68694285Y-19276961D01*
X68694285Y-19276961D02*
X68741904Y-19181723D01*
X68741904Y-19181723D02*
X68789523Y-18991247D01*
X68789523Y-18991247D02*
X68789523Y-18848390D01*
X68789523Y-18848390D02*
X68741904Y-18657914D01*
X68741904Y-18657914D02*
X68694285Y-18562676D01*
X68694285Y-18562676D02*
X68599047Y-18467438D01*
X68599047Y-18467438D02*
X68456190Y-18419819D01*
X68456190Y-18419819D02*
X68360952Y-18419819D01*
X68360952Y-18419819D02*
X68218095Y-18467438D01*
X68218095Y-18467438D02*
X68170476Y-18515057D01*
X67551428Y-18419819D02*
X67360952Y-18419819D01*
X67360952Y-18419819D02*
X67265714Y-18467438D01*
X67265714Y-18467438D02*
X67170476Y-18562676D01*
X67170476Y-18562676D02*
X67122857Y-18753152D01*
X67122857Y-18753152D02*
X67122857Y-19086485D01*
X67122857Y-19086485D02*
X67170476Y-19276961D01*
X67170476Y-19276961D02*
X67265714Y-19372200D01*
X67265714Y-19372200D02*
X67360952Y-19419819D01*
X67360952Y-19419819D02*
X67551428Y-19419819D01*
X67551428Y-19419819D02*
X67646666Y-19372200D01*
X67646666Y-19372200D02*
X67741904Y-19276961D01*
X67741904Y-19276961D02*
X67789523Y-19086485D01*
X67789523Y-19086485D02*
X67789523Y-18753152D01*
X67789523Y-18753152D02*
X67741904Y-18562676D01*
X67741904Y-18562676D02*
X67646666Y-18467438D01*
X67646666Y-18467438D02*
X67551428Y-18419819D01*
X66694285Y-19419819D02*
X66694285Y-18419819D01*
X66694285Y-18419819D02*
X66122857Y-19419819D01*
X66122857Y-19419819D02*
X66122857Y-18419819D01*
X65646666Y-19419819D02*
X65646666Y-18419819D01*
X65646666Y-18419819D02*
X65075238Y-19419819D01*
X65075238Y-19419819D02*
X65075238Y-18419819D01*
X64075238Y-19419819D02*
X64646666Y-19419819D01*
X64360952Y-19419819D02*
X64360952Y-18419819D01*
X64360952Y-18419819D02*
X64456190Y-18562676D01*
X64456190Y-18562676D02*
X64551428Y-18657914D01*
X64551428Y-18657914D02*
X64646666Y-18705533D01*
X63741904Y-18419819D02*
X63122857Y-18419819D01*
X63122857Y-18419819D02*
X63456190Y-18800771D01*
X63456190Y-18800771D02*
X63313333Y-18800771D01*
X63313333Y-18800771D02*
X63218095Y-18848390D01*
X63218095Y-18848390D02*
X63170476Y-18896009D01*
X63170476Y-18896009D02*
X63122857Y-18991247D01*
X63122857Y-18991247D02*
X63122857Y-19229342D01*
X63122857Y-19229342D02*
X63170476Y-19324580D01*
X63170476Y-19324580D02*
X63218095Y-19372200D01*
X63218095Y-19372200D02*
X63313333Y-19419819D01*
X63313333Y-19419819D02*
X63599047Y-19419819D01*
X63599047Y-19419819D02*
X63694285Y-19372200D01*
X63694285Y-19372200D02*
X63741904Y-19324580D01*
X62170476Y-19419819D02*
X62741904Y-19419819D01*
X62456190Y-19419819D02*
X62456190Y-18419819D01*
X62456190Y-18419819D02*
X62551428Y-18562676D01*
X62551428Y-18562676D02*
X62646666Y-18657914D01*
X62646666Y-18657914D02*
X62741904Y-18705533D01*
X21290476Y10940420D02*
X21338095Y10892800D01*
X21338095Y10892800D02*
X21480952Y10845181D01*
X21480952Y10845181D02*
X21576190Y10845181D01*
X21576190Y10845181D02*
X21719047Y10892800D01*
X21719047Y10892800D02*
X21814285Y10988039D01*
X21814285Y10988039D02*
X21861904Y11083277D01*
X21861904Y11083277D02*
X21909523Y11273753D01*
X21909523Y11273753D02*
X21909523Y11416610D01*
X21909523Y11416610D02*
X21861904Y11607086D01*
X21861904Y11607086D02*
X21814285Y11702324D01*
X21814285Y11702324D02*
X21719047Y11797562D01*
X21719047Y11797562D02*
X21576190Y11845181D01*
X21576190Y11845181D02*
X21480952Y11845181D01*
X21480952Y11845181D02*
X21338095Y11797562D01*
X21338095Y11797562D02*
X21290476Y11749943D01*
X20671428Y11845181D02*
X20480952Y11845181D01*
X20480952Y11845181D02*
X20385714Y11797562D01*
X20385714Y11797562D02*
X20290476Y11702324D01*
X20290476Y11702324D02*
X20242857Y11511848D01*
X20242857Y11511848D02*
X20242857Y11178515D01*
X20242857Y11178515D02*
X20290476Y10988039D01*
X20290476Y10988039D02*
X20385714Y10892800D01*
X20385714Y10892800D02*
X20480952Y10845181D01*
X20480952Y10845181D02*
X20671428Y10845181D01*
X20671428Y10845181D02*
X20766666Y10892800D01*
X20766666Y10892800D02*
X20861904Y10988039D01*
X20861904Y10988039D02*
X20909523Y11178515D01*
X20909523Y11178515D02*
X20909523Y11511848D01*
X20909523Y11511848D02*
X20861904Y11702324D01*
X20861904Y11702324D02*
X20766666Y11797562D01*
X20766666Y11797562D02*
X20671428Y11845181D01*
X19814285Y10845181D02*
X19814285Y11845181D01*
X19814285Y11845181D02*
X19242857Y10845181D01*
X19242857Y10845181D02*
X19242857Y11845181D01*
X18766666Y10845181D02*
X18766666Y11845181D01*
X18766666Y11845181D02*
X18195238Y10845181D01*
X18195238Y10845181D02*
X18195238Y11845181D01*
X17195238Y10845181D02*
X17766666Y10845181D01*
X17480952Y10845181D02*
X17480952Y11845181D01*
X17480952Y11845181D02*
X17576190Y11702324D01*
X17576190Y11702324D02*
X17671428Y11607086D01*
X17671428Y11607086D02*
X17766666Y11559467D01*
X16338095Y11511848D02*
X16338095Y10845181D01*
X16576190Y11892800D02*
X16814285Y11178515D01*
X16814285Y11178515D02*
X16195238Y11178515D01*
X15909523Y11845181D02*
X15242857Y11845181D01*
X15242857Y11845181D02*
X15671428Y10845181D01*
X46370476Y-19124580D02*
X46418095Y-19172200D01*
X46418095Y-19172200D02*
X46560952Y-19219819D01*
X46560952Y-19219819D02*
X46656190Y-19219819D01*
X46656190Y-19219819D02*
X46799047Y-19172200D01*
X46799047Y-19172200D02*
X46894285Y-19076961D01*
X46894285Y-19076961D02*
X46941904Y-18981723D01*
X46941904Y-18981723D02*
X46989523Y-18791247D01*
X46989523Y-18791247D02*
X46989523Y-18648390D01*
X46989523Y-18648390D02*
X46941904Y-18457914D01*
X46941904Y-18457914D02*
X46894285Y-18362676D01*
X46894285Y-18362676D02*
X46799047Y-18267438D01*
X46799047Y-18267438D02*
X46656190Y-18219819D01*
X46656190Y-18219819D02*
X46560952Y-18219819D01*
X46560952Y-18219819D02*
X46418095Y-18267438D01*
X46418095Y-18267438D02*
X46370476Y-18315057D01*
X45751428Y-18219819D02*
X45560952Y-18219819D01*
X45560952Y-18219819D02*
X45465714Y-18267438D01*
X45465714Y-18267438D02*
X45370476Y-18362676D01*
X45370476Y-18362676D02*
X45322857Y-18553152D01*
X45322857Y-18553152D02*
X45322857Y-18886485D01*
X45322857Y-18886485D02*
X45370476Y-19076961D01*
X45370476Y-19076961D02*
X45465714Y-19172200D01*
X45465714Y-19172200D02*
X45560952Y-19219819D01*
X45560952Y-19219819D02*
X45751428Y-19219819D01*
X45751428Y-19219819D02*
X45846666Y-19172200D01*
X45846666Y-19172200D02*
X45941904Y-19076961D01*
X45941904Y-19076961D02*
X45989523Y-18886485D01*
X45989523Y-18886485D02*
X45989523Y-18553152D01*
X45989523Y-18553152D02*
X45941904Y-18362676D01*
X45941904Y-18362676D02*
X45846666Y-18267438D01*
X45846666Y-18267438D02*
X45751428Y-18219819D01*
X44894285Y-19219819D02*
X44894285Y-18219819D01*
X44894285Y-18219819D02*
X44322857Y-19219819D01*
X44322857Y-19219819D02*
X44322857Y-18219819D01*
X43846666Y-19219819D02*
X43846666Y-18219819D01*
X43846666Y-18219819D02*
X43275238Y-19219819D01*
X43275238Y-19219819D02*
X43275238Y-18219819D01*
X42275238Y-19219819D02*
X42846666Y-19219819D01*
X42560952Y-19219819D02*
X42560952Y-18219819D01*
X42560952Y-18219819D02*
X42656190Y-18362676D01*
X42656190Y-18362676D02*
X42751428Y-18457914D01*
X42751428Y-18457914D02*
X42846666Y-18505533D01*
X41418095Y-18553152D02*
X41418095Y-19219819D01*
X41656190Y-18172200D02*
X41894285Y-18886485D01*
X41894285Y-18886485D02*
X41275238Y-18886485D01*
X40846666Y-19219819D02*
X40656190Y-19219819D01*
X40656190Y-19219819D02*
X40560952Y-19172200D01*
X40560952Y-19172200D02*
X40513333Y-19124580D01*
X40513333Y-19124580D02*
X40418095Y-18981723D01*
X40418095Y-18981723D02*
X40370476Y-18791247D01*
X40370476Y-18791247D02*
X40370476Y-18410295D01*
X40370476Y-18410295D02*
X40418095Y-18315057D01*
X40418095Y-18315057D02*
X40465714Y-18267438D01*
X40465714Y-18267438D02*
X40560952Y-18219819D01*
X40560952Y-18219819D02*
X40751428Y-18219819D01*
X40751428Y-18219819D02*
X40846666Y-18267438D01*
X40846666Y-18267438D02*
X40894285Y-18315057D01*
X40894285Y-18315057D02*
X40941904Y-18410295D01*
X40941904Y-18410295D02*
X40941904Y-18648390D01*
X40941904Y-18648390D02*
X40894285Y-18743628D01*
X40894285Y-18743628D02*
X40846666Y-18791247D01*
X40846666Y-18791247D02*
X40751428Y-18838866D01*
X40751428Y-18838866D02*
X40560952Y-18838866D01*
X40560952Y-18838866D02*
X40465714Y-18791247D01*
X40465714Y-18791247D02*
X40418095Y-18743628D01*
X40418095Y-18743628D02*
X40370476Y-18648390D01*
%TO.C,CONN134*%
D11*
X-21700000Y-18620000D02*
X-21700000Y-20000000D01*
X-21700000Y-26275000D02*
X-21700000Y-28925000D01*
X-21700000Y-28900000D02*
X1380000Y-28900000D01*
X-20320000Y-18620000D02*
X-21700000Y-18620000D01*
X-19050000Y-18620000D02*
X1380000Y-18620000D01*
X-19050000Y-26175000D02*
X-19050000Y-28825000D01*
X-19050000Y-26200000D02*
X-21700000Y-26200000D01*
X1380000Y-18620000D02*
X1380000Y-23920000D01*
%TO.C,CONN133*%
X-21700000Y1380000D02*
X-21700000Y0D01*
X-21700000Y-6275000D02*
X-21700000Y-8925000D01*
X-21700000Y-8900000D02*
X1380000Y-8900000D01*
X-20320000Y1380000D02*
X-21700000Y1380000D01*
X-19050000Y1380000D02*
X1380000Y1380000D01*
X-19050000Y-6175000D02*
X-19050000Y-8825000D01*
X-19050000Y-6200000D02*
X-21700000Y-6200000D01*
X1380000Y1380000D02*
X1380000Y-3920000D01*
%TO.C,CONN131*%
X56500000Y-13770000D02*
X56500000Y-15150000D01*
X56500000Y-21525000D02*
X56500000Y-24175000D01*
X56500000Y-24150000D02*
X74500000Y-24150000D01*
X57880000Y-13770000D02*
X56500000Y-13770000D01*
X59150000Y-13770000D02*
X74500000Y-13770000D01*
X59150000Y-21400000D02*
X59150000Y-24050000D01*
X59150000Y-21550000D02*
X56500000Y-21550000D01*
X74500000Y-13770000D02*
X74500000Y-19070000D01*
%TO.C,CONN147*%
X8320000Y16350000D02*
X8320000Y14970000D01*
X8320000Y13700000D02*
X8320000Y11050000D01*
X8320000Y6270000D02*
X28860000Y6270000D01*
X9700000Y16350000D02*
X8320000Y16350000D01*
X10970000Y16350000D02*
X10970000Y13700000D01*
X10970000Y16350000D02*
X28860000Y16350000D01*
X10970000Y13700000D02*
X8320000Y13700000D01*
X28860000Y16350000D02*
X28860000Y11050000D01*
%TO.C,CONN149*%
X33400000Y-13770000D02*
X33400000Y-15150000D01*
X33400000Y-16420000D02*
X33400000Y-19070000D01*
X33400000Y-23850000D02*
X53940000Y-23850000D01*
X34780000Y-13770000D02*
X33400000Y-13770000D01*
X36050000Y-13770000D02*
X36050000Y-16420000D01*
X36050000Y-13770000D02*
X53940000Y-13770000D01*
X36050000Y-16420000D02*
X33400000Y-16420000D01*
X53940000Y-13770000D02*
X53940000Y-19070000D01*
%TD*%
M02*
