%TF.GenerationSoftware,KiCad,Pcbnew,10.0.6*%
%TF.CreationDate,2026-09-09T17:54:03+02:00*%
%TF.ProjectId,4mb mapper nms8280,346d6220-6d61-4707-9065-72206e6d7338,rev?*%
%TF.SameCoordinates,PX7489fc0PY52f83c0*%
%TF.FileFunction,Profile,NP*%
%FSLAX46Y46*%
G04 Gerber Fmt 4.6, Leading zero omitted, Abs format (unit mm)*
G04 Created by KiCad (PCBNEW 10.0.6) date 2026-09-09 17:54:03*
%MOMM*%
%LPD*%
G01*
G04 APERTURE LIST*
%TA.AperFunction,Profile*%
%ADD10C,0.050000*%
%TD*%
G04 APERTURE END LIST*
D10*
X-24147576Y2437524D02*
G75*
G02*
X-23147576Y3437476I999976J-24D01*
G01*
X-24147576Y-29362476D02*
X-24147576Y2437524D01*
X-23147576Y3437524D02*
X3953422Y3437524D01*
X-23147576Y-30362476D02*
G75*
G02*
X-24147576Y-29362476I-24J999976D01*
G01*
X4041095Y-30362476D02*
X-23147576Y-30362476D01*
X4041095Y-30362476D02*
G75*
G02*
X5041124Y-31361591I5J-1000024D01*
G01*
X4953409Y4432474D02*
G75*
G02*
X3953422Y3437478I-1000009J5026D01*
G01*
X4953409Y4432474D02*
X5047392Y23041210D01*
X5047392Y23041210D02*
G75*
G02*
X6048749Y24036220I1000008J-5010D01*
G01*
X5051540Y-43163361D02*
X5041094Y-31361591D01*
X6048749Y24036159D02*
X77051791Y23938895D01*
X6051539Y-44162476D02*
G75*
G02*
X5051524Y-43163361I-39J999976D01*
G01*
X31855026Y-44162476D02*
X6051539Y-44162476D01*
X32855022Y-43165081D02*
G75*
G02*
X31855026Y-44162525I-1000022J2581D01*
G01*
X32897398Y-26898779D02*
X32855022Y-43165081D01*
X32897398Y-26898779D02*
G75*
G02*
X33898782Y-25901396I1000002J-2621D01*
G01*
X76953042Y-25961090D02*
X33898782Y-25901385D01*
X77051791Y23938895D02*
G75*
G02*
X78050394Y22936892I-1391J-999995D01*
G01*
X77954427Y-24963095D02*
G75*
G02*
X76953042Y-25961028I-999927J1995D01*
G01*
X78050419Y22936892D02*
X77954427Y-24963095D01*
M02*
