%TF.GenerationSoftware,KiCad,Pcbnew,10.0.6*%
%TF.CreationDate,2026-09-09T17:54:03+02:00*%
%TF.ProjectId,4mb mapper nms8280,346d6220-6d61-4707-9065-72206e6d7338,rev?*%
%TF.SameCoordinates,PX7489fc0PY52f83c0*%
%TF.FileFunction,Legend,Top*%
%TF.FilePolarity,Positive*%
%FSLAX46Y46*%
G04 Gerber Fmt 4.6, Leading zero omitted, Abs format (unit mm)*
G04 Created by KiCad (PCBNEW 10.0.6) date 2026-09-09 17:54:03*
%MOMM*%
%LPD*%
G01*
G04 APERTURE LIST*
%ADD10C,0.125000*%
%ADD11C,0.200000*%
%ADD12C,0.150000*%
%ADD13C,0.120000*%
G04 APERTURE END LIST*
D10*
X8351402Y21120492D02*
X8351402Y20453825D01*
X8113307Y21501444D02*
X7875212Y20787159D01*
X7875212Y20787159D02*
X8494259Y20787159D01*
X9637117Y20453825D02*
X9637117Y21453825D01*
X9637117Y21453825D02*
X9970450Y20739540D01*
X9970450Y20739540D02*
X10303783Y21453825D01*
X10303783Y21453825D02*
X10303783Y20453825D01*
X11113307Y20977635D02*
X11256164Y20930016D01*
X11256164Y20930016D02*
X11303783Y20882397D01*
X11303783Y20882397D02*
X11351402Y20787159D01*
X11351402Y20787159D02*
X11351402Y20644302D01*
X11351402Y20644302D02*
X11303783Y20549064D01*
X11303783Y20549064D02*
X11256164Y20501444D01*
X11256164Y20501444D02*
X11160926Y20453825D01*
X11160926Y20453825D02*
X10779974Y20453825D01*
X10779974Y20453825D02*
X10779974Y21453825D01*
X10779974Y21453825D02*
X11113307Y21453825D01*
X11113307Y21453825D02*
X11208545Y21406206D01*
X11208545Y21406206D02*
X11256164Y21358587D01*
X11256164Y21358587D02*
X11303783Y21263349D01*
X11303783Y21263349D02*
X11303783Y21168111D01*
X11303783Y21168111D02*
X11256164Y21072873D01*
X11256164Y21072873D02*
X11208545Y21025254D01*
X11208545Y21025254D02*
X11113307Y20977635D01*
X11113307Y20977635D02*
X10779974Y20977635D01*
X12541879Y20453825D02*
X12541879Y21120492D01*
X12541879Y21025254D02*
X12589498Y21072873D01*
X12589498Y21072873D02*
X12684736Y21120492D01*
X12684736Y21120492D02*
X12827593Y21120492D01*
X12827593Y21120492D02*
X12922831Y21072873D01*
X12922831Y21072873D02*
X12970450Y20977635D01*
X12970450Y20977635D02*
X12970450Y20453825D01*
X12970450Y20977635D02*
X13018069Y21072873D01*
X13018069Y21072873D02*
X13113307Y21120492D01*
X13113307Y21120492D02*
X13256164Y21120492D01*
X13256164Y21120492D02*
X13351403Y21072873D01*
X13351403Y21072873D02*
X13399022Y20977635D01*
X13399022Y20977635D02*
X13399022Y20453825D01*
X14303783Y20453825D02*
X14303783Y20977635D01*
X14303783Y20977635D02*
X14256164Y21072873D01*
X14256164Y21072873D02*
X14160926Y21120492D01*
X14160926Y21120492D02*
X13970450Y21120492D01*
X13970450Y21120492D02*
X13875212Y21072873D01*
X14303783Y20501444D02*
X14208545Y20453825D01*
X14208545Y20453825D02*
X13970450Y20453825D01*
X13970450Y20453825D02*
X13875212Y20501444D01*
X13875212Y20501444D02*
X13827593Y20596683D01*
X13827593Y20596683D02*
X13827593Y20691921D01*
X13827593Y20691921D02*
X13875212Y20787159D01*
X13875212Y20787159D02*
X13970450Y20834778D01*
X13970450Y20834778D02*
X14208545Y20834778D01*
X14208545Y20834778D02*
X14303783Y20882397D01*
X14779974Y21120492D02*
X14779974Y20120492D01*
X14779974Y21072873D02*
X14875212Y21120492D01*
X14875212Y21120492D02*
X15065688Y21120492D01*
X15065688Y21120492D02*
X15160926Y21072873D01*
X15160926Y21072873D02*
X15208545Y21025254D01*
X15208545Y21025254D02*
X15256164Y20930016D01*
X15256164Y20930016D02*
X15256164Y20644302D01*
X15256164Y20644302D02*
X15208545Y20549064D01*
X15208545Y20549064D02*
X15160926Y20501444D01*
X15160926Y20501444D02*
X15065688Y20453825D01*
X15065688Y20453825D02*
X14875212Y20453825D01*
X14875212Y20453825D02*
X14779974Y20501444D01*
X15684736Y21120492D02*
X15684736Y20120492D01*
X15684736Y21072873D02*
X15779974Y21120492D01*
X15779974Y21120492D02*
X15970450Y21120492D01*
X15970450Y21120492D02*
X16065688Y21072873D01*
X16065688Y21072873D02*
X16113307Y21025254D01*
X16113307Y21025254D02*
X16160926Y20930016D01*
X16160926Y20930016D02*
X16160926Y20644302D01*
X16160926Y20644302D02*
X16113307Y20549064D01*
X16113307Y20549064D02*
X16065688Y20501444D01*
X16065688Y20501444D02*
X15970450Y20453825D01*
X15970450Y20453825D02*
X15779974Y20453825D01*
X15779974Y20453825D02*
X15684736Y20501444D01*
X16970450Y20501444D02*
X16875212Y20453825D01*
X16875212Y20453825D02*
X16684736Y20453825D01*
X16684736Y20453825D02*
X16589498Y20501444D01*
X16589498Y20501444D02*
X16541879Y20596683D01*
X16541879Y20596683D02*
X16541879Y20977635D01*
X16541879Y20977635D02*
X16589498Y21072873D01*
X16589498Y21072873D02*
X16684736Y21120492D01*
X16684736Y21120492D02*
X16875212Y21120492D01*
X16875212Y21120492D02*
X16970450Y21072873D01*
X16970450Y21072873D02*
X17018069Y20977635D01*
X17018069Y20977635D02*
X17018069Y20882397D01*
X17018069Y20882397D02*
X16541879Y20787159D01*
X17446641Y20453825D02*
X17446641Y21120492D01*
X17446641Y20930016D02*
X17494260Y21025254D01*
X17494260Y21025254D02*
X17541879Y21072873D01*
X17541879Y21072873D02*
X17637117Y21120492D01*
X17637117Y21120492D02*
X17732355Y21120492D01*
X18684737Y21120492D02*
X19065689Y21120492D01*
X18827594Y20453825D02*
X18827594Y21310968D01*
X18827594Y21310968D02*
X18875213Y21406206D01*
X18875213Y21406206D02*
X18970451Y21453825D01*
X18970451Y21453825D02*
X19065689Y21453825D01*
X19541880Y20453825D02*
X19446642Y20501444D01*
X19446642Y20501444D02*
X19399023Y20549064D01*
X19399023Y20549064D02*
X19351404Y20644302D01*
X19351404Y20644302D02*
X19351404Y20930016D01*
X19351404Y20930016D02*
X19399023Y21025254D01*
X19399023Y21025254D02*
X19446642Y21072873D01*
X19446642Y21072873D02*
X19541880Y21120492D01*
X19541880Y21120492D02*
X19684737Y21120492D01*
X19684737Y21120492D02*
X19779975Y21072873D01*
X19779975Y21072873D02*
X19827594Y21025254D01*
X19827594Y21025254D02*
X19875213Y20930016D01*
X19875213Y20930016D02*
X19875213Y20644302D01*
X19875213Y20644302D02*
X19827594Y20549064D01*
X19827594Y20549064D02*
X19779975Y20501444D01*
X19779975Y20501444D02*
X19684737Y20453825D01*
X19684737Y20453825D02*
X19541880Y20453825D01*
X20303785Y20453825D02*
X20303785Y21120492D01*
X20303785Y20930016D02*
X20351404Y21025254D01*
X20351404Y21025254D02*
X20399023Y21072873D01*
X20399023Y21072873D02*
X20494261Y21120492D01*
X20494261Y21120492D02*
X20589499Y21120492D01*
X21684738Y20453825D02*
X21684738Y21453825D01*
X21684738Y21453825D02*
X22256166Y20453825D01*
X22256166Y20453825D02*
X22256166Y21453825D01*
X22732357Y20453825D02*
X22732357Y21453825D01*
X22732357Y21453825D02*
X23065690Y20739540D01*
X23065690Y20739540D02*
X23399023Y21453825D01*
X23399023Y21453825D02*
X23399023Y20453825D01*
X23827595Y20501444D02*
X23970452Y20453825D01*
X23970452Y20453825D02*
X24208547Y20453825D01*
X24208547Y20453825D02*
X24303785Y20501444D01*
X24303785Y20501444D02*
X24351404Y20549064D01*
X24351404Y20549064D02*
X24399023Y20644302D01*
X24399023Y20644302D02*
X24399023Y20739540D01*
X24399023Y20739540D02*
X24351404Y20834778D01*
X24351404Y20834778D02*
X24303785Y20882397D01*
X24303785Y20882397D02*
X24208547Y20930016D01*
X24208547Y20930016D02*
X24018071Y20977635D01*
X24018071Y20977635D02*
X23922833Y21025254D01*
X23922833Y21025254D02*
X23875214Y21072873D01*
X23875214Y21072873D02*
X23827595Y21168111D01*
X23827595Y21168111D02*
X23827595Y21263349D01*
X23827595Y21263349D02*
X23875214Y21358587D01*
X23875214Y21358587D02*
X23922833Y21406206D01*
X23922833Y21406206D02*
X24018071Y21453825D01*
X24018071Y21453825D02*
X24256166Y21453825D01*
X24256166Y21453825D02*
X24399023Y21406206D01*
X24970452Y21025254D02*
X24875214Y21072873D01*
X24875214Y21072873D02*
X24827595Y21120492D01*
X24827595Y21120492D02*
X24779976Y21215730D01*
X24779976Y21215730D02*
X24779976Y21263349D01*
X24779976Y21263349D02*
X24827595Y21358587D01*
X24827595Y21358587D02*
X24875214Y21406206D01*
X24875214Y21406206D02*
X24970452Y21453825D01*
X24970452Y21453825D02*
X25160928Y21453825D01*
X25160928Y21453825D02*
X25256166Y21406206D01*
X25256166Y21406206D02*
X25303785Y21358587D01*
X25303785Y21358587D02*
X25351404Y21263349D01*
X25351404Y21263349D02*
X25351404Y21215730D01*
X25351404Y21215730D02*
X25303785Y21120492D01*
X25303785Y21120492D02*
X25256166Y21072873D01*
X25256166Y21072873D02*
X25160928Y21025254D01*
X25160928Y21025254D02*
X24970452Y21025254D01*
X24970452Y21025254D02*
X24875214Y20977635D01*
X24875214Y20977635D02*
X24827595Y20930016D01*
X24827595Y20930016D02*
X24779976Y20834778D01*
X24779976Y20834778D02*
X24779976Y20644302D01*
X24779976Y20644302D02*
X24827595Y20549064D01*
X24827595Y20549064D02*
X24875214Y20501444D01*
X24875214Y20501444D02*
X24970452Y20453825D01*
X24970452Y20453825D02*
X25160928Y20453825D01*
X25160928Y20453825D02*
X25256166Y20501444D01*
X25256166Y20501444D02*
X25303785Y20549064D01*
X25303785Y20549064D02*
X25351404Y20644302D01*
X25351404Y20644302D02*
X25351404Y20834778D01*
X25351404Y20834778D02*
X25303785Y20930016D01*
X25303785Y20930016D02*
X25256166Y20977635D01*
X25256166Y20977635D02*
X25160928Y21025254D01*
X25732357Y21358587D02*
X25779976Y21406206D01*
X25779976Y21406206D02*
X25875214Y21453825D01*
X25875214Y21453825D02*
X26113309Y21453825D01*
X26113309Y21453825D02*
X26208547Y21406206D01*
X26208547Y21406206D02*
X26256166Y21358587D01*
X26256166Y21358587D02*
X26303785Y21263349D01*
X26303785Y21263349D02*
X26303785Y21168111D01*
X26303785Y21168111D02*
X26256166Y21025254D01*
X26256166Y21025254D02*
X25684738Y20453825D01*
X25684738Y20453825D02*
X26303785Y20453825D01*
X26875214Y21025254D02*
X26779976Y21072873D01*
X26779976Y21072873D02*
X26732357Y21120492D01*
X26732357Y21120492D02*
X26684738Y21215730D01*
X26684738Y21215730D02*
X26684738Y21263349D01*
X26684738Y21263349D02*
X26732357Y21358587D01*
X26732357Y21358587D02*
X26779976Y21406206D01*
X26779976Y21406206D02*
X26875214Y21453825D01*
X26875214Y21453825D02*
X27065690Y21453825D01*
X27065690Y21453825D02*
X27160928Y21406206D01*
X27160928Y21406206D02*
X27208547Y21358587D01*
X27208547Y21358587D02*
X27256166Y21263349D01*
X27256166Y21263349D02*
X27256166Y21215730D01*
X27256166Y21215730D02*
X27208547Y21120492D01*
X27208547Y21120492D02*
X27160928Y21072873D01*
X27160928Y21072873D02*
X27065690Y21025254D01*
X27065690Y21025254D02*
X26875214Y21025254D01*
X26875214Y21025254D02*
X26779976Y20977635D01*
X26779976Y20977635D02*
X26732357Y20930016D01*
X26732357Y20930016D02*
X26684738Y20834778D01*
X26684738Y20834778D02*
X26684738Y20644302D01*
X26684738Y20644302D02*
X26732357Y20549064D01*
X26732357Y20549064D02*
X26779976Y20501444D01*
X26779976Y20501444D02*
X26875214Y20453825D01*
X26875214Y20453825D02*
X27065690Y20453825D01*
X27065690Y20453825D02*
X27160928Y20501444D01*
X27160928Y20501444D02*
X27208547Y20549064D01*
X27208547Y20549064D02*
X27256166Y20644302D01*
X27256166Y20644302D02*
X27256166Y20834778D01*
X27256166Y20834778D02*
X27208547Y20930016D01*
X27208547Y20930016D02*
X27160928Y20977635D01*
X27160928Y20977635D02*
X27065690Y21025254D01*
X27875214Y21453825D02*
X27970452Y21453825D01*
X27970452Y21453825D02*
X28065690Y21406206D01*
X28065690Y21406206D02*
X28113309Y21358587D01*
X28113309Y21358587D02*
X28160928Y21263349D01*
X28160928Y21263349D02*
X28208547Y21072873D01*
X28208547Y21072873D02*
X28208547Y20834778D01*
X28208547Y20834778D02*
X28160928Y20644302D01*
X28160928Y20644302D02*
X28113309Y20549064D01*
X28113309Y20549064D02*
X28065690Y20501444D01*
X28065690Y20501444D02*
X27970452Y20453825D01*
X27970452Y20453825D02*
X27875214Y20453825D01*
X27875214Y20453825D02*
X27779976Y20501444D01*
X27779976Y20501444D02*
X27732357Y20549064D01*
X27732357Y20549064D02*
X27684738Y20644302D01*
X27684738Y20644302D02*
X27637119Y20834778D01*
X27637119Y20834778D02*
X27637119Y21072873D01*
X27637119Y21072873D02*
X27684738Y21263349D01*
X27684738Y21263349D02*
X27732357Y21358587D01*
X27732357Y21358587D02*
X27779976Y21406206D01*
X27779976Y21406206D02*
X27875214Y21453825D01*
X7922831Y18843881D02*
X7922831Y19843881D01*
X8399021Y19510548D02*
X8399021Y18843881D01*
X8399021Y19415310D02*
X8446640Y19462929D01*
X8446640Y19462929D02*
X8541878Y19510548D01*
X8541878Y19510548D02*
X8684735Y19510548D01*
X8684735Y19510548D02*
X8779973Y19462929D01*
X8779973Y19462929D02*
X8827592Y19367691D01*
X8827592Y19367691D02*
X8827592Y18843881D01*
X9256164Y18891500D02*
X9351402Y18843881D01*
X9351402Y18843881D02*
X9541878Y18843881D01*
X9541878Y18843881D02*
X9637116Y18891500D01*
X9637116Y18891500D02*
X9684735Y18986739D01*
X9684735Y18986739D02*
X9684735Y19034358D01*
X9684735Y19034358D02*
X9637116Y19129596D01*
X9637116Y19129596D02*
X9541878Y19177215D01*
X9541878Y19177215D02*
X9399021Y19177215D01*
X9399021Y19177215D02*
X9303783Y19224834D01*
X9303783Y19224834D02*
X9256164Y19320072D01*
X9256164Y19320072D02*
X9256164Y19367691D01*
X9256164Y19367691D02*
X9303783Y19462929D01*
X9303783Y19462929D02*
X9399021Y19510548D01*
X9399021Y19510548D02*
X9541878Y19510548D01*
X9541878Y19510548D02*
X9637116Y19462929D01*
X10113307Y19510548D02*
X10113307Y18510548D01*
X10113307Y19462929D02*
X10208545Y19510548D01*
X10208545Y19510548D02*
X10399021Y19510548D01*
X10399021Y19510548D02*
X10494259Y19462929D01*
X10494259Y19462929D02*
X10541878Y19415310D01*
X10541878Y19415310D02*
X10589497Y19320072D01*
X10589497Y19320072D02*
X10589497Y19034358D01*
X10589497Y19034358D02*
X10541878Y18939120D01*
X10541878Y18939120D02*
X10494259Y18891500D01*
X10494259Y18891500D02*
X10399021Y18843881D01*
X10399021Y18843881D02*
X10208545Y18843881D01*
X10208545Y18843881D02*
X10113307Y18891500D01*
X11018069Y18843881D02*
X11018069Y19510548D01*
X11018069Y19843881D02*
X10970450Y19796262D01*
X10970450Y19796262D02*
X11018069Y19748643D01*
X11018069Y19748643D02*
X11065688Y19796262D01*
X11065688Y19796262D02*
X11018069Y19843881D01*
X11018069Y19843881D02*
X11018069Y19748643D01*
X11494259Y18843881D02*
X11494259Y19510548D01*
X11494259Y19320072D02*
X11541878Y19415310D01*
X11541878Y19415310D02*
X11589497Y19462929D01*
X11589497Y19462929D02*
X11684735Y19510548D01*
X11684735Y19510548D02*
X11779973Y19510548D01*
X12494259Y18891500D02*
X12399021Y18843881D01*
X12399021Y18843881D02*
X12208545Y18843881D01*
X12208545Y18843881D02*
X12113307Y18891500D01*
X12113307Y18891500D02*
X12065688Y18986739D01*
X12065688Y18986739D02*
X12065688Y19367691D01*
X12065688Y19367691D02*
X12113307Y19462929D01*
X12113307Y19462929D02*
X12208545Y19510548D01*
X12208545Y19510548D02*
X12399021Y19510548D01*
X12399021Y19510548D02*
X12494259Y19462929D01*
X12494259Y19462929D02*
X12541878Y19367691D01*
X12541878Y19367691D02*
X12541878Y19272453D01*
X12541878Y19272453D02*
X12065688Y19177215D01*
X13399021Y18843881D02*
X13399021Y19843881D01*
X13399021Y18891500D02*
X13303783Y18843881D01*
X13303783Y18843881D02*
X13113307Y18843881D01*
X13113307Y18843881D02*
X13018069Y18891500D01*
X13018069Y18891500D02*
X12970450Y18939120D01*
X12970450Y18939120D02*
X12922831Y19034358D01*
X12922831Y19034358D02*
X12922831Y19320072D01*
X12922831Y19320072D02*
X12970450Y19415310D01*
X12970450Y19415310D02*
X13018069Y19462929D01*
X13018069Y19462929D02*
X13113307Y19510548D01*
X13113307Y19510548D02*
X13303783Y19510548D01*
X13303783Y19510548D02*
X13399021Y19462929D01*
X14637117Y18843881D02*
X14637117Y19843881D01*
X14637117Y19462929D02*
X14732355Y19510548D01*
X14732355Y19510548D02*
X14922831Y19510548D01*
X14922831Y19510548D02*
X15018069Y19462929D01*
X15018069Y19462929D02*
X15065688Y19415310D01*
X15065688Y19415310D02*
X15113307Y19320072D01*
X15113307Y19320072D02*
X15113307Y19034358D01*
X15113307Y19034358D02*
X15065688Y18939120D01*
X15065688Y18939120D02*
X15018069Y18891500D01*
X15018069Y18891500D02*
X14922831Y18843881D01*
X14922831Y18843881D02*
X14732355Y18843881D01*
X14732355Y18843881D02*
X14637117Y18891500D01*
X15446641Y19510548D02*
X15684736Y18843881D01*
X15922831Y19510548D02*
X15684736Y18843881D01*
X15684736Y18843881D02*
X15589498Y18605786D01*
X15589498Y18605786D02*
X15541879Y18558167D01*
X15541879Y18558167D02*
X15446641Y18510548D01*
X17065689Y18843881D02*
X17065689Y19843881D01*
X17065689Y19367691D02*
X17637117Y19367691D01*
X17637117Y18843881D02*
X17637117Y19843881D01*
X18113308Y18939120D02*
X18160927Y18891500D01*
X18160927Y18891500D02*
X18113308Y18843881D01*
X18113308Y18843881D02*
X18065689Y18891500D01*
X18065689Y18891500D02*
X18113308Y18939120D01*
X18113308Y18939120D02*
X18113308Y18843881D01*
X18779974Y19843881D02*
X18970450Y19843881D01*
X18970450Y19843881D02*
X19065688Y19796262D01*
X19065688Y19796262D02*
X19160926Y19701024D01*
X19160926Y19701024D02*
X19208545Y19510548D01*
X19208545Y19510548D02*
X19208545Y19177215D01*
X19208545Y19177215D02*
X19160926Y18986739D01*
X19160926Y18986739D02*
X19065688Y18891500D01*
X19065688Y18891500D02*
X18970450Y18843881D01*
X18970450Y18843881D02*
X18779974Y18843881D01*
X18779974Y18843881D02*
X18684736Y18891500D01*
X18684736Y18891500D02*
X18589498Y18986739D01*
X18589498Y18986739D02*
X18541879Y19177215D01*
X18541879Y19177215D02*
X18541879Y19510548D01*
X18541879Y19510548D02*
X18589498Y19701024D01*
X18589498Y19701024D02*
X18684736Y19796262D01*
X18684736Y19796262D02*
X18779974Y19843881D01*
X19637117Y18843881D02*
X19637117Y19510548D01*
X19637117Y19320072D02*
X19684736Y19415310D01*
X19684736Y19415310D02*
X19732355Y19462929D01*
X19732355Y19462929D02*
X19827593Y19510548D01*
X19827593Y19510548D02*
X19922831Y19510548D01*
X20684736Y18843881D02*
X20684736Y19367691D01*
X20684736Y19367691D02*
X20637117Y19462929D01*
X20637117Y19462929D02*
X20541879Y19510548D01*
X20541879Y19510548D02*
X20351403Y19510548D01*
X20351403Y19510548D02*
X20256165Y19462929D01*
X20684736Y18891500D02*
X20589498Y18843881D01*
X20589498Y18843881D02*
X20351403Y18843881D01*
X20351403Y18843881D02*
X20256165Y18891500D01*
X20256165Y18891500D02*
X20208546Y18986739D01*
X20208546Y18986739D02*
X20208546Y19081977D01*
X20208546Y19081977D02*
X20256165Y19177215D01*
X20256165Y19177215D02*
X20351403Y19224834D01*
X20351403Y19224834D02*
X20589498Y19224834D01*
X20589498Y19224834D02*
X20684736Y19272453D01*
X21160927Y19510548D02*
X21160927Y18843881D01*
X21160927Y19415310D02*
X21208546Y19462929D01*
X21208546Y19462929D02*
X21303784Y19510548D01*
X21303784Y19510548D02*
X21446641Y19510548D01*
X21446641Y19510548D02*
X21541879Y19462929D01*
X21541879Y19462929D02*
X21589498Y19367691D01*
X21589498Y19367691D02*
X21589498Y18843881D01*
X22065689Y19510548D02*
X22065689Y18653405D01*
X22065689Y18653405D02*
X22018070Y18558167D01*
X22018070Y18558167D02*
X21922832Y18510548D01*
X21922832Y18510548D02*
X21875213Y18510548D01*
X22065689Y19843881D02*
X22018070Y19796262D01*
X22018070Y19796262D02*
X22065689Y19748643D01*
X22065689Y19748643D02*
X22113308Y19796262D01*
X22113308Y19796262D02*
X22065689Y19843881D01*
X22065689Y19843881D02*
X22065689Y19748643D01*
X22922831Y18891500D02*
X22827593Y18843881D01*
X22827593Y18843881D02*
X22637117Y18843881D01*
X22637117Y18843881D02*
X22541879Y18891500D01*
X22541879Y18891500D02*
X22494260Y18986739D01*
X22494260Y18986739D02*
X22494260Y19367691D01*
X22494260Y19367691D02*
X22541879Y19462929D01*
X22541879Y19462929D02*
X22637117Y19510548D01*
X22637117Y19510548D02*
X22827593Y19510548D01*
X22827593Y19510548D02*
X22922831Y19462929D01*
X22922831Y19462929D02*
X22970450Y19367691D01*
X22970450Y19367691D02*
X22970450Y19272453D01*
X22970450Y19272453D02*
X22494260Y19177215D01*
X24160927Y19224834D02*
X24922832Y19224834D01*
X26113308Y19748643D02*
X26160927Y19796262D01*
X26160927Y19796262D02*
X26256165Y19843881D01*
X26256165Y19843881D02*
X26494260Y19843881D01*
X26494260Y19843881D02*
X26589498Y19796262D01*
X26589498Y19796262D02*
X26637117Y19748643D01*
X26637117Y19748643D02*
X26684736Y19653405D01*
X26684736Y19653405D02*
X26684736Y19558167D01*
X26684736Y19558167D02*
X26637117Y19415310D01*
X26637117Y19415310D02*
X26065689Y18843881D01*
X26065689Y18843881D02*
X26684736Y18843881D01*
X27303784Y19843881D02*
X27399022Y19843881D01*
X27399022Y19843881D02*
X27494260Y19796262D01*
X27494260Y19796262D02*
X27541879Y19748643D01*
X27541879Y19748643D02*
X27589498Y19653405D01*
X27589498Y19653405D02*
X27637117Y19462929D01*
X27637117Y19462929D02*
X27637117Y19224834D01*
X27637117Y19224834D02*
X27589498Y19034358D01*
X27589498Y19034358D02*
X27541879Y18939120D01*
X27541879Y18939120D02*
X27494260Y18891500D01*
X27494260Y18891500D02*
X27399022Y18843881D01*
X27399022Y18843881D02*
X27303784Y18843881D01*
X27303784Y18843881D02*
X27208546Y18891500D01*
X27208546Y18891500D02*
X27160927Y18939120D01*
X27160927Y18939120D02*
X27113308Y19034358D01*
X27113308Y19034358D02*
X27065689Y19224834D01*
X27065689Y19224834D02*
X27065689Y19462929D01*
X27065689Y19462929D02*
X27113308Y19653405D01*
X27113308Y19653405D02*
X27160927Y19748643D01*
X27160927Y19748643D02*
X27208546Y19796262D01*
X27208546Y19796262D02*
X27303784Y19843881D01*
X28018070Y19748643D02*
X28065689Y19796262D01*
X28065689Y19796262D02*
X28160927Y19843881D01*
X28160927Y19843881D02*
X28399022Y19843881D01*
X28399022Y19843881D02*
X28494260Y19796262D01*
X28494260Y19796262D02*
X28541879Y19748643D01*
X28541879Y19748643D02*
X28589498Y19653405D01*
X28589498Y19653405D02*
X28589498Y19558167D01*
X28589498Y19558167D02*
X28541879Y19415310D01*
X28541879Y19415310D02*
X27970451Y18843881D01*
X27970451Y18843881D02*
X28589498Y18843881D01*
X29446641Y19843881D02*
X29256165Y19843881D01*
X29256165Y19843881D02*
X29160927Y19796262D01*
X29160927Y19796262D02*
X29113308Y19748643D01*
X29113308Y19748643D02*
X29018070Y19605786D01*
X29018070Y19605786D02*
X28970451Y19415310D01*
X28970451Y19415310D02*
X28970451Y19034358D01*
X28970451Y19034358D02*
X29018070Y18939120D01*
X29018070Y18939120D02*
X29065689Y18891500D01*
X29065689Y18891500D02*
X29160927Y18843881D01*
X29160927Y18843881D02*
X29351403Y18843881D01*
X29351403Y18843881D02*
X29446641Y18891500D01*
X29446641Y18891500D02*
X29494260Y18939120D01*
X29494260Y18939120D02*
X29541879Y19034358D01*
X29541879Y19034358D02*
X29541879Y19272453D01*
X29541879Y19272453D02*
X29494260Y19367691D01*
X29494260Y19367691D02*
X29446641Y19415310D01*
X29446641Y19415310D02*
X29351403Y19462929D01*
X29351403Y19462929D02*
X29160927Y19462929D01*
X29160927Y19462929D02*
X29065689Y19415310D01*
X29065689Y19415310D02*
X29018070Y19367691D01*
X29018070Y19367691D02*
X28970451Y19272453D01*
D11*
X6700000Y22716819D02*
X31000000Y22716819D01*
X31000000Y17493125D01*
X6700000Y17493125D01*
X6700000Y22716819D01*
D12*
X31759580Y-26266666D02*
X31807200Y-26314285D01*
X31807200Y-26314285D02*
X31854819Y-26457142D01*
X31854819Y-26457142D02*
X31854819Y-26552380D01*
X31854819Y-26552380D02*
X31807200Y-26695237D01*
X31807200Y-26695237D02*
X31711961Y-26790475D01*
X31711961Y-26790475D02*
X31616723Y-26838094D01*
X31616723Y-26838094D02*
X31426247Y-26885713D01*
X31426247Y-26885713D02*
X31283390Y-26885713D01*
X31283390Y-26885713D02*
X31092914Y-26838094D01*
X31092914Y-26838094D02*
X30997676Y-26790475D01*
X30997676Y-26790475D02*
X30902438Y-26695237D01*
X30902438Y-26695237D02*
X30854819Y-26552380D01*
X30854819Y-26552380D02*
X30854819Y-26457142D01*
X30854819Y-26457142D02*
X30902438Y-26314285D01*
X30902438Y-26314285D02*
X30950057Y-26266666D01*
X30950057Y-25885713D02*
X30902438Y-25838094D01*
X30902438Y-25838094D02*
X30854819Y-25742856D01*
X30854819Y-25742856D02*
X30854819Y-25504761D01*
X30854819Y-25504761D02*
X30902438Y-25409523D01*
X30902438Y-25409523D02*
X30950057Y-25361904D01*
X30950057Y-25361904D02*
X31045295Y-25314285D01*
X31045295Y-25314285D02*
X31140533Y-25314285D01*
X31140533Y-25314285D02*
X31283390Y-25361904D01*
X31283390Y-25361904D02*
X31854819Y-25933332D01*
X31854819Y-25933332D02*
X31854819Y-25314285D01*
X57704761Y11940420D02*
X57657142Y11892800D01*
X57657142Y11892800D02*
X57514285Y11845181D01*
X57514285Y11845181D02*
X57419047Y11845181D01*
X57419047Y11845181D02*
X57276190Y11892800D01*
X57276190Y11892800D02*
X57180952Y11988039D01*
X57180952Y11988039D02*
X57133333Y12083277D01*
X57133333Y12083277D02*
X57085714Y12273753D01*
X57085714Y12273753D02*
X57085714Y12416610D01*
X57085714Y12416610D02*
X57133333Y12607086D01*
X57133333Y12607086D02*
X57180952Y12702324D01*
X57180952Y12702324D02*
X57276190Y12797562D01*
X57276190Y12797562D02*
X57419047Y12845181D01*
X57419047Y12845181D02*
X57514285Y12845181D01*
X57514285Y12845181D02*
X57657142Y12797562D01*
X57657142Y12797562D02*
X57704761Y12749943D01*
X58657142Y11845181D02*
X58085714Y11845181D01*
X58371428Y11845181D02*
X58371428Y12845181D01*
X58371428Y12845181D02*
X58276190Y12702324D01*
X58276190Y12702324D02*
X58180952Y12607086D01*
X58180952Y12607086D02*
X58085714Y12559467D01*
X58990476Y12845181D02*
X59609523Y12845181D01*
X59609523Y12845181D02*
X59276190Y12464229D01*
X59276190Y12464229D02*
X59419047Y12464229D01*
X59419047Y12464229D02*
X59514285Y12416610D01*
X59514285Y12416610D02*
X59561904Y12368991D01*
X59561904Y12368991D02*
X59609523Y12273753D01*
X59609523Y12273753D02*
X59609523Y12035658D01*
X59609523Y12035658D02*
X59561904Y11940420D01*
X59561904Y11940420D02*
X59514285Y11892800D01*
X59514285Y11892800D02*
X59419047Y11845181D01*
X59419047Y11845181D02*
X59133333Y11845181D01*
X59133333Y11845181D02*
X59038095Y11892800D01*
X59038095Y11892800D02*
X58990476Y11940420D01*
X60561904Y11845181D02*
X59990476Y11845181D01*
X60276190Y11845181D02*
X60276190Y12845181D01*
X60276190Y12845181D02*
X60180952Y12702324D01*
X60180952Y12702324D02*
X60085714Y12607086D01*
X60085714Y12607086D02*
X59990476Y12559467D01*
X61323809Y12368991D02*
X61466666Y12321372D01*
X61466666Y12321372D02*
X61514285Y12273753D01*
X61514285Y12273753D02*
X61561904Y12178515D01*
X61561904Y12178515D02*
X61561904Y12035658D01*
X61561904Y12035658D02*
X61514285Y11940420D01*
X61514285Y11940420D02*
X61466666Y11892800D01*
X61466666Y11892800D02*
X61371428Y11845181D01*
X61371428Y11845181D02*
X60990476Y11845181D01*
X60990476Y11845181D02*
X60990476Y12845181D01*
X60990476Y12845181D02*
X61323809Y12845181D01*
X61323809Y12845181D02*
X61419047Y12797562D01*
X61419047Y12797562D02*
X61466666Y12749943D01*
X61466666Y12749943D02*
X61514285Y12654705D01*
X61514285Y12654705D02*
X61514285Y12559467D01*
X61514285Y12559467D02*
X61466666Y12464229D01*
X61466666Y12464229D02*
X61419047Y12416610D01*
X61419047Y12416610D02*
X61323809Y12368991D01*
X61323809Y12368991D02*
X60990476Y12368991D01*
X62514285Y11845181D02*
X61942857Y11845181D01*
X62228571Y11845181D02*
X62228571Y12845181D01*
X62228571Y12845181D02*
X62133333Y12702324D01*
X62133333Y12702324D02*
X62038095Y12607086D01*
X62038095Y12607086D02*
X61942857Y12559467D01*
X10704761Y-8859580D02*
X10657142Y-8907200D01*
X10657142Y-8907200D02*
X10514285Y-8954819D01*
X10514285Y-8954819D02*
X10419047Y-8954819D01*
X10419047Y-8954819D02*
X10276190Y-8907200D01*
X10276190Y-8907200D02*
X10180952Y-8811961D01*
X10180952Y-8811961D02*
X10133333Y-8716723D01*
X10133333Y-8716723D02*
X10085714Y-8526247D01*
X10085714Y-8526247D02*
X10085714Y-8383390D01*
X10085714Y-8383390D02*
X10133333Y-8192914D01*
X10133333Y-8192914D02*
X10180952Y-8097676D01*
X10180952Y-8097676D02*
X10276190Y-8002438D01*
X10276190Y-8002438D02*
X10419047Y-7954819D01*
X10419047Y-7954819D02*
X10514285Y-7954819D01*
X10514285Y-7954819D02*
X10657142Y-8002438D01*
X10657142Y-8002438D02*
X10704761Y-8050057D01*
X11657142Y-8954819D02*
X11085714Y-8954819D01*
X11371428Y-8954819D02*
X11371428Y-7954819D01*
X11371428Y-7954819D02*
X11276190Y-8097676D01*
X11276190Y-8097676D02*
X11180952Y-8192914D01*
X11180952Y-8192914D02*
X11085714Y-8240533D01*
X12514285Y-8288152D02*
X12514285Y-8954819D01*
X12276190Y-7907200D02*
X12038095Y-8621485D01*
X12038095Y-8621485D02*
X12657142Y-8621485D01*
X12942857Y-7954819D02*
X13609523Y-7954819D01*
X13609523Y-7954819D02*
X13180952Y-8954819D01*
X14323809Y-8431009D02*
X14466666Y-8478628D01*
X14466666Y-8478628D02*
X14514285Y-8526247D01*
X14514285Y-8526247D02*
X14561904Y-8621485D01*
X14561904Y-8621485D02*
X14561904Y-8764342D01*
X14561904Y-8764342D02*
X14514285Y-8859580D01*
X14514285Y-8859580D02*
X14466666Y-8907200D01*
X14466666Y-8907200D02*
X14371428Y-8954819D01*
X14371428Y-8954819D02*
X13990476Y-8954819D01*
X13990476Y-8954819D02*
X13990476Y-7954819D01*
X13990476Y-7954819D02*
X14323809Y-7954819D01*
X14323809Y-7954819D02*
X14419047Y-8002438D01*
X14419047Y-8002438D02*
X14466666Y-8050057D01*
X14466666Y-8050057D02*
X14514285Y-8145295D01*
X14514285Y-8145295D02*
X14514285Y-8240533D01*
X14514285Y-8240533D02*
X14466666Y-8335771D01*
X14466666Y-8335771D02*
X14419047Y-8383390D01*
X14419047Y-8383390D02*
X14323809Y-8431009D01*
X14323809Y-8431009D02*
X13990476Y-8431009D01*
X15514285Y-8954819D02*
X14942857Y-8954819D01*
X15228571Y-8954819D02*
X15228571Y-7954819D01*
X15228571Y-7954819D02*
X15133333Y-8097676D01*
X15133333Y-8097676D02*
X15038095Y-8192914D01*
X15038095Y-8192914D02*
X14942857Y-8240533D01*
X62295238Y18645181D02*
X62295238Y19645181D01*
X63342856Y18740420D02*
X63295237Y18692800D01*
X63295237Y18692800D02*
X63152380Y18645181D01*
X63152380Y18645181D02*
X63057142Y18645181D01*
X63057142Y18645181D02*
X62914285Y18692800D01*
X62914285Y18692800D02*
X62819047Y18788039D01*
X62819047Y18788039D02*
X62771428Y18883277D01*
X62771428Y18883277D02*
X62723809Y19073753D01*
X62723809Y19073753D02*
X62723809Y19216610D01*
X62723809Y19216610D02*
X62771428Y19407086D01*
X62771428Y19407086D02*
X62819047Y19502324D01*
X62819047Y19502324D02*
X62914285Y19597562D01*
X62914285Y19597562D02*
X63057142Y19645181D01*
X63057142Y19645181D02*
X63152380Y19645181D01*
X63152380Y19645181D02*
X63295237Y19597562D01*
X63295237Y19597562D02*
X63342856Y19549943D01*
X64295237Y18645181D02*
X63723809Y18645181D01*
X64009523Y18645181D02*
X64009523Y19645181D01*
X64009523Y19645181D02*
X63914285Y19502324D01*
X63914285Y19502324D02*
X63819047Y19407086D01*
X63819047Y19407086D02*
X63723809Y19359467D01*
X64866666Y19216610D02*
X64771428Y19264229D01*
X64771428Y19264229D02*
X64723809Y19311848D01*
X64723809Y19311848D02*
X64676190Y19407086D01*
X64676190Y19407086D02*
X64676190Y19454705D01*
X64676190Y19454705D02*
X64723809Y19549943D01*
X64723809Y19549943D02*
X64771428Y19597562D01*
X64771428Y19597562D02*
X64866666Y19645181D01*
X64866666Y19645181D02*
X65057142Y19645181D01*
X65057142Y19645181D02*
X65152380Y19597562D01*
X65152380Y19597562D02*
X65199999Y19549943D01*
X65199999Y19549943D02*
X65247618Y19454705D01*
X65247618Y19454705D02*
X65247618Y19407086D01*
X65247618Y19407086D02*
X65199999Y19311848D01*
X65199999Y19311848D02*
X65152380Y19264229D01*
X65152380Y19264229D02*
X65057142Y19216610D01*
X65057142Y19216610D02*
X64866666Y19216610D01*
X64866666Y19216610D02*
X64771428Y19168991D01*
X64771428Y19168991D02*
X64723809Y19121372D01*
X64723809Y19121372D02*
X64676190Y19026134D01*
X64676190Y19026134D02*
X64676190Y18835658D01*
X64676190Y18835658D02*
X64723809Y18740420D01*
X64723809Y18740420D02*
X64771428Y18692800D01*
X64771428Y18692800D02*
X64866666Y18645181D01*
X64866666Y18645181D02*
X65057142Y18645181D01*
X65057142Y18645181D02*
X65152380Y18692800D01*
X65152380Y18692800D02*
X65199999Y18740420D01*
X65199999Y18740420D02*
X65247618Y18835658D01*
X65247618Y18835658D02*
X65247618Y19026134D01*
X65247618Y19026134D02*
X65199999Y19121372D01*
X65199999Y19121372D02*
X65152380Y19168991D01*
X65152380Y19168991D02*
X65057142Y19216610D01*
X65866666Y19645181D02*
X65961904Y19645181D01*
X65961904Y19645181D02*
X66057142Y19597562D01*
X66057142Y19597562D02*
X66104761Y19549943D01*
X66104761Y19549943D02*
X66152380Y19454705D01*
X66152380Y19454705D02*
X66199999Y19264229D01*
X66199999Y19264229D02*
X66199999Y19026134D01*
X66199999Y19026134D02*
X66152380Y18835658D01*
X66152380Y18835658D02*
X66104761Y18740420D01*
X66104761Y18740420D02*
X66057142Y18692800D01*
X66057142Y18692800D02*
X65961904Y18645181D01*
X65961904Y18645181D02*
X65866666Y18645181D01*
X65866666Y18645181D02*
X65771428Y18692800D01*
X65771428Y18692800D02*
X65723809Y18740420D01*
X65723809Y18740420D02*
X65676190Y18835658D01*
X65676190Y18835658D02*
X65628571Y19026134D01*
X65628571Y19026134D02*
X65628571Y19264229D01*
X65628571Y19264229D02*
X65676190Y19454705D01*
X65676190Y19454705D02*
X65723809Y19549943D01*
X65723809Y19549943D02*
X65771428Y19597562D01*
X65771428Y19597562D02*
X65866666Y19645181D01*
X66961904Y19168991D02*
X67104761Y19121372D01*
X67104761Y19121372D02*
X67152380Y19073753D01*
X67152380Y19073753D02*
X67199999Y18978515D01*
X67199999Y18978515D02*
X67199999Y18835658D01*
X67199999Y18835658D02*
X67152380Y18740420D01*
X67152380Y18740420D02*
X67104761Y18692800D01*
X67104761Y18692800D02*
X67009523Y18645181D01*
X67009523Y18645181D02*
X66628571Y18645181D01*
X66628571Y18645181D02*
X66628571Y19645181D01*
X66628571Y19645181D02*
X66961904Y19645181D01*
X66961904Y19645181D02*
X67057142Y19597562D01*
X67057142Y19597562D02*
X67104761Y19549943D01*
X67104761Y19549943D02*
X67152380Y19454705D01*
X67152380Y19454705D02*
X67152380Y19359467D01*
X67152380Y19359467D02*
X67104761Y19264229D01*
X67104761Y19264229D02*
X67057142Y19216610D01*
X67057142Y19216610D02*
X66961904Y19168991D01*
X66961904Y19168991D02*
X66628571Y19168991D01*
X68152380Y18645181D02*
X67580952Y18645181D01*
X67866666Y18645181D02*
X67866666Y19645181D01*
X67866666Y19645181D02*
X67771428Y19502324D01*
X67771428Y19502324D02*
X67676190Y19407086D01*
X67676190Y19407086D02*
X67580952Y19359467D01*
X17873095Y-26993649D02*
X17873095Y-27803172D01*
X17873095Y-27803172D02*
X17920714Y-27898410D01*
X17920714Y-27898410D02*
X17968333Y-27946030D01*
X17968333Y-27946030D02*
X18063571Y-27993649D01*
X18063571Y-27993649D02*
X18254047Y-27993649D01*
X18254047Y-27993649D02*
X18349285Y-27946030D01*
X18349285Y-27946030D02*
X18396904Y-27898410D01*
X18396904Y-27898410D02*
X18444523Y-27803172D01*
X18444523Y-27803172D02*
X18444523Y-26993649D01*
X18873095Y-27088887D02*
X18920714Y-27041268D01*
X18920714Y-27041268D02*
X19015952Y-26993649D01*
X19015952Y-26993649D02*
X19254047Y-26993649D01*
X19254047Y-26993649D02*
X19349285Y-27041268D01*
X19349285Y-27041268D02*
X19396904Y-27088887D01*
X19396904Y-27088887D02*
X19444523Y-27184125D01*
X19444523Y-27184125D02*
X19444523Y-27279363D01*
X19444523Y-27279363D02*
X19396904Y-27422220D01*
X19396904Y-27422220D02*
X18825476Y-27993649D01*
X18825476Y-27993649D02*
X19444523Y-27993649D01*
X42155238Y17245181D02*
X42155238Y18245181D01*
X43202856Y17340420D02*
X43155237Y17292800D01*
X43155237Y17292800D02*
X43012380Y17245181D01*
X43012380Y17245181D02*
X42917142Y17245181D01*
X42917142Y17245181D02*
X42774285Y17292800D01*
X42774285Y17292800D02*
X42679047Y17388039D01*
X42679047Y17388039D02*
X42631428Y17483277D01*
X42631428Y17483277D02*
X42583809Y17673753D01*
X42583809Y17673753D02*
X42583809Y17816610D01*
X42583809Y17816610D02*
X42631428Y18007086D01*
X42631428Y18007086D02*
X42679047Y18102324D01*
X42679047Y18102324D02*
X42774285Y18197562D01*
X42774285Y18197562D02*
X42917142Y18245181D01*
X42917142Y18245181D02*
X43012380Y18245181D01*
X43012380Y18245181D02*
X43155237Y18197562D01*
X43155237Y18197562D02*
X43202856Y18149943D01*
X44155237Y17245181D02*
X43583809Y17245181D01*
X43869523Y17245181D02*
X43869523Y18245181D01*
X43869523Y18245181D02*
X43774285Y18102324D01*
X43774285Y18102324D02*
X43679047Y18007086D01*
X43679047Y18007086D02*
X43583809Y17959467D01*
X45059999Y18245181D02*
X44583809Y18245181D01*
X44583809Y18245181D02*
X44536190Y17768991D01*
X44536190Y17768991D02*
X44583809Y17816610D01*
X44583809Y17816610D02*
X44679047Y17864229D01*
X44679047Y17864229D02*
X44917142Y17864229D01*
X44917142Y17864229D02*
X45012380Y17816610D01*
X45012380Y17816610D02*
X45059999Y17768991D01*
X45059999Y17768991D02*
X45107618Y17673753D01*
X45107618Y17673753D02*
X45107618Y17435658D01*
X45107618Y17435658D02*
X45059999Y17340420D01*
X45059999Y17340420D02*
X45012380Y17292800D01*
X45012380Y17292800D02*
X44917142Y17245181D01*
X44917142Y17245181D02*
X44679047Y17245181D01*
X44679047Y17245181D02*
X44583809Y17292800D01*
X44583809Y17292800D02*
X44536190Y17340420D01*
X45440952Y18245181D02*
X46107618Y18245181D01*
X46107618Y18245181D02*
X45679047Y17245181D01*
X46821904Y17768991D02*
X46964761Y17721372D01*
X46964761Y17721372D02*
X47012380Y17673753D01*
X47012380Y17673753D02*
X47059999Y17578515D01*
X47059999Y17578515D02*
X47059999Y17435658D01*
X47059999Y17435658D02*
X47012380Y17340420D01*
X47012380Y17340420D02*
X46964761Y17292800D01*
X46964761Y17292800D02*
X46869523Y17245181D01*
X46869523Y17245181D02*
X46488571Y17245181D01*
X46488571Y17245181D02*
X46488571Y18245181D01*
X46488571Y18245181D02*
X46821904Y18245181D01*
X46821904Y18245181D02*
X46917142Y18197562D01*
X46917142Y18197562D02*
X46964761Y18149943D01*
X46964761Y18149943D02*
X47012380Y18054705D01*
X47012380Y18054705D02*
X47012380Y17959467D01*
X47012380Y17959467D02*
X46964761Y17864229D01*
X46964761Y17864229D02*
X46917142Y17816610D01*
X46917142Y17816610D02*
X46821904Y17768991D01*
X46821904Y17768991D02*
X46488571Y17768991D01*
X48012380Y17245181D02*
X47440952Y17245181D01*
X47726666Y17245181D02*
X47726666Y18245181D01*
X47726666Y18245181D02*
X47631428Y18102324D01*
X47631428Y18102324D02*
X47536190Y18007086D01*
X47536190Y18007086D02*
X47440952Y17959467D01*
X51404761Y16940420D02*
X51357142Y16892800D01*
X51357142Y16892800D02*
X51214285Y16845181D01*
X51214285Y16845181D02*
X51119047Y16845181D01*
X51119047Y16845181D02*
X50976190Y16892800D01*
X50976190Y16892800D02*
X50880952Y16988039D01*
X50880952Y16988039D02*
X50833333Y17083277D01*
X50833333Y17083277D02*
X50785714Y17273753D01*
X50785714Y17273753D02*
X50785714Y17416610D01*
X50785714Y17416610D02*
X50833333Y17607086D01*
X50833333Y17607086D02*
X50880952Y17702324D01*
X50880952Y17702324D02*
X50976190Y17797562D01*
X50976190Y17797562D02*
X51119047Y17845181D01*
X51119047Y17845181D02*
X51214285Y17845181D01*
X51214285Y17845181D02*
X51357142Y17797562D01*
X51357142Y17797562D02*
X51404761Y17749943D01*
X52357142Y16845181D02*
X51785714Y16845181D01*
X52071428Y16845181D02*
X52071428Y17845181D01*
X52071428Y17845181D02*
X51976190Y17702324D01*
X51976190Y17702324D02*
X51880952Y17607086D01*
X51880952Y17607086D02*
X51785714Y17559467D01*
X53261904Y17845181D02*
X52785714Y17845181D01*
X52785714Y17845181D02*
X52738095Y17368991D01*
X52738095Y17368991D02*
X52785714Y17416610D01*
X52785714Y17416610D02*
X52880952Y17464229D01*
X52880952Y17464229D02*
X53119047Y17464229D01*
X53119047Y17464229D02*
X53214285Y17416610D01*
X53214285Y17416610D02*
X53261904Y17368991D01*
X53261904Y17368991D02*
X53309523Y17273753D01*
X53309523Y17273753D02*
X53309523Y17035658D01*
X53309523Y17035658D02*
X53261904Y16940420D01*
X53261904Y16940420D02*
X53214285Y16892800D01*
X53214285Y16892800D02*
X53119047Y16845181D01*
X53119047Y16845181D02*
X52880952Y16845181D01*
X52880952Y16845181D02*
X52785714Y16892800D01*
X52785714Y16892800D02*
X52738095Y16940420D01*
X53642857Y17845181D02*
X54309523Y17845181D01*
X54309523Y17845181D02*
X53880952Y16845181D01*
X55023809Y17368991D02*
X55166666Y17321372D01*
X55166666Y17321372D02*
X55214285Y17273753D01*
X55214285Y17273753D02*
X55261904Y17178515D01*
X55261904Y17178515D02*
X55261904Y17035658D01*
X55261904Y17035658D02*
X55214285Y16940420D01*
X55214285Y16940420D02*
X55166666Y16892800D01*
X55166666Y16892800D02*
X55071428Y16845181D01*
X55071428Y16845181D02*
X54690476Y16845181D01*
X54690476Y16845181D02*
X54690476Y17845181D01*
X54690476Y17845181D02*
X55023809Y17845181D01*
X55023809Y17845181D02*
X55119047Y17797562D01*
X55119047Y17797562D02*
X55166666Y17749943D01*
X55166666Y17749943D02*
X55214285Y17654705D01*
X55214285Y17654705D02*
X55214285Y17559467D01*
X55214285Y17559467D02*
X55166666Y17464229D01*
X55166666Y17464229D02*
X55119047Y17416610D01*
X55119047Y17416610D02*
X55023809Y17368991D01*
X55023809Y17368991D02*
X54690476Y17368991D01*
X56214285Y16845181D02*
X55642857Y16845181D01*
X55928571Y16845181D02*
X55928571Y17845181D01*
X55928571Y17845181D02*
X55833333Y17702324D01*
X55833333Y17702324D02*
X55738095Y17607086D01*
X55738095Y17607086D02*
X55642857Y17559467D01*
X62895238Y-454819D02*
X62895238Y545181D01*
X63942856Y-359580D02*
X63895237Y-407200D01*
X63895237Y-407200D02*
X63752380Y-454819D01*
X63752380Y-454819D02*
X63657142Y-454819D01*
X63657142Y-454819D02*
X63514285Y-407200D01*
X63514285Y-407200D02*
X63419047Y-311961D01*
X63419047Y-311961D02*
X63371428Y-216723D01*
X63371428Y-216723D02*
X63323809Y-26247D01*
X63323809Y-26247D02*
X63323809Y116610D01*
X63323809Y116610D02*
X63371428Y307086D01*
X63371428Y307086D02*
X63419047Y402324D01*
X63419047Y402324D02*
X63514285Y497562D01*
X63514285Y497562D02*
X63657142Y545181D01*
X63657142Y545181D02*
X63752380Y545181D01*
X63752380Y545181D02*
X63895237Y497562D01*
X63895237Y497562D02*
X63942856Y449943D01*
X64895237Y-454819D02*
X64323809Y-454819D01*
X64609523Y-454819D02*
X64609523Y545181D01*
X64609523Y545181D02*
X64514285Y402324D01*
X64514285Y402324D02*
X64419047Y307086D01*
X64419047Y307086D02*
X64323809Y259467D01*
X65228571Y545181D02*
X65847618Y545181D01*
X65847618Y545181D02*
X65514285Y164229D01*
X65514285Y164229D02*
X65657142Y164229D01*
X65657142Y164229D02*
X65752380Y116610D01*
X65752380Y116610D02*
X65799999Y68991D01*
X65799999Y68991D02*
X65847618Y-26247D01*
X65847618Y-26247D02*
X65847618Y-264342D01*
X65847618Y-264342D02*
X65799999Y-359580D01*
X65799999Y-359580D02*
X65752380Y-407200D01*
X65752380Y-407200D02*
X65657142Y-454819D01*
X65657142Y-454819D02*
X65371428Y-454819D01*
X65371428Y-454819D02*
X65276190Y-407200D01*
X65276190Y-407200D02*
X65228571Y-359580D01*
X66799999Y-454819D02*
X66228571Y-454819D01*
X66514285Y-454819D02*
X66514285Y545181D01*
X66514285Y545181D02*
X66419047Y402324D01*
X66419047Y402324D02*
X66323809Y307086D01*
X66323809Y307086D02*
X66228571Y259467D01*
X67799999Y-359580D02*
X67752380Y-407200D01*
X67752380Y-407200D02*
X67609523Y-454819D01*
X67609523Y-454819D02*
X67514285Y-454819D01*
X67514285Y-454819D02*
X67371428Y-407200D01*
X67371428Y-407200D02*
X67276190Y-311961D01*
X67276190Y-311961D02*
X67228571Y-216723D01*
X67228571Y-216723D02*
X67180952Y-26247D01*
X67180952Y-26247D02*
X67180952Y116610D01*
X67180952Y116610D02*
X67228571Y307086D01*
X67228571Y307086D02*
X67276190Y402324D01*
X67276190Y402324D02*
X67371428Y497562D01*
X67371428Y497562D02*
X67514285Y545181D01*
X67514285Y545181D02*
X67609523Y545181D01*
X67609523Y545181D02*
X67752380Y497562D01*
X67752380Y497562D02*
X67799999Y449943D01*
X68752380Y-454819D02*
X68180952Y-454819D01*
X68466666Y-454819D02*
X68466666Y545181D01*
X68466666Y545181D02*
X68371428Y402324D01*
X68371428Y402324D02*
X68276190Y307086D01*
X68276190Y307086D02*
X68180952Y259467D01*
X75466666Y10945181D02*
X75466666Y10230896D01*
X75466666Y10230896D02*
X75419047Y10088039D01*
X75419047Y10088039D02*
X75323809Y9992800D01*
X75323809Y9992800D02*
X75180952Y9945181D01*
X75180952Y9945181D02*
X75085714Y9945181D01*
X76466666Y9945181D02*
X75895238Y9945181D01*
X76180952Y9945181D02*
X76180952Y10945181D01*
X76180952Y10945181D02*
X76085714Y10802324D01*
X76085714Y10802324D02*
X75990476Y10707086D01*
X75990476Y10707086D02*
X75895238Y10659467D01*
X17571429Y-2404819D02*
X17571429Y-1404819D01*
X18619047Y-2309580D02*
X18571428Y-2357200D01*
X18571428Y-2357200D02*
X18428571Y-2404819D01*
X18428571Y-2404819D02*
X18333333Y-2404819D01*
X18333333Y-2404819D02*
X18190476Y-2357200D01*
X18190476Y-2357200D02*
X18095238Y-2261961D01*
X18095238Y-2261961D02*
X18047619Y-2166723D01*
X18047619Y-2166723D02*
X18000000Y-1976247D01*
X18000000Y-1976247D02*
X18000000Y-1833390D01*
X18000000Y-1833390D02*
X18047619Y-1642914D01*
X18047619Y-1642914D02*
X18095238Y-1547676D01*
X18095238Y-1547676D02*
X18190476Y-1452438D01*
X18190476Y-1452438D02*
X18333333Y-1404819D01*
X18333333Y-1404819D02*
X18428571Y-1404819D01*
X18428571Y-1404819D02*
X18571428Y-1452438D01*
X18571428Y-1452438D02*
X18619047Y-1500057D01*
X19571428Y-2404819D02*
X19000000Y-2404819D01*
X19285714Y-2404819D02*
X19285714Y-1404819D01*
X19285714Y-1404819D02*
X19190476Y-1547676D01*
X19190476Y-1547676D02*
X19095238Y-1642914D01*
X19095238Y-1642914D02*
X19000000Y-1690533D01*
X20428571Y-1738152D02*
X20428571Y-2404819D01*
X20190476Y-1357200D02*
X19952381Y-2071485D01*
X19952381Y-2071485D02*
X20571428Y-2071485D01*
X20857143Y-1404819D02*
X21523809Y-1404819D01*
X21523809Y-1404819D02*
X21095238Y-2404819D01*
X10680952Y2620420D02*
X10633333Y2572800D01*
X10633333Y2572800D02*
X10490476Y2525181D01*
X10490476Y2525181D02*
X10395238Y2525181D01*
X10395238Y2525181D02*
X10252381Y2572800D01*
X10252381Y2572800D02*
X10157143Y2668039D01*
X10157143Y2668039D02*
X10109524Y2763277D01*
X10109524Y2763277D02*
X10061905Y2953753D01*
X10061905Y2953753D02*
X10061905Y3096610D01*
X10061905Y3096610D02*
X10109524Y3287086D01*
X10109524Y3287086D02*
X10157143Y3382324D01*
X10157143Y3382324D02*
X10252381Y3477562D01*
X10252381Y3477562D02*
X10395238Y3525181D01*
X10395238Y3525181D02*
X10490476Y3525181D01*
X10490476Y3525181D02*
X10633333Y3477562D01*
X10633333Y3477562D02*
X10680952Y3429943D01*
X11633333Y2525181D02*
X11061905Y2525181D01*
X11347619Y2525181D02*
X11347619Y3525181D01*
X11347619Y3525181D02*
X11252381Y3382324D01*
X11252381Y3382324D02*
X11157143Y3287086D01*
X11157143Y3287086D02*
X11061905Y3239467D01*
X12490476Y3191848D02*
X12490476Y2525181D01*
X12252381Y3572800D02*
X12014286Y2858515D01*
X12014286Y2858515D02*
X12633333Y2858515D01*
X12919048Y3525181D02*
X13585714Y3525181D01*
X13585714Y3525181D02*
X13157143Y2525181D01*
X71304761Y18140420D02*
X71257142Y18092800D01*
X71257142Y18092800D02*
X71114285Y18045181D01*
X71114285Y18045181D02*
X71019047Y18045181D01*
X71019047Y18045181D02*
X70876190Y18092800D01*
X70876190Y18092800D02*
X70780952Y18188039D01*
X70780952Y18188039D02*
X70733333Y18283277D01*
X70733333Y18283277D02*
X70685714Y18473753D01*
X70685714Y18473753D02*
X70685714Y18616610D01*
X70685714Y18616610D02*
X70733333Y18807086D01*
X70733333Y18807086D02*
X70780952Y18902324D01*
X70780952Y18902324D02*
X70876190Y18997562D01*
X70876190Y18997562D02*
X71019047Y19045181D01*
X71019047Y19045181D02*
X71114285Y19045181D01*
X71114285Y19045181D02*
X71257142Y18997562D01*
X71257142Y18997562D02*
X71304761Y18949943D01*
X72257142Y18045181D02*
X71685714Y18045181D01*
X71971428Y18045181D02*
X71971428Y19045181D01*
X71971428Y19045181D02*
X71876190Y18902324D01*
X71876190Y18902324D02*
X71780952Y18807086D01*
X71780952Y18807086D02*
X71685714Y18759467D01*
X72828571Y18616610D02*
X72733333Y18664229D01*
X72733333Y18664229D02*
X72685714Y18711848D01*
X72685714Y18711848D02*
X72638095Y18807086D01*
X72638095Y18807086D02*
X72638095Y18854705D01*
X72638095Y18854705D02*
X72685714Y18949943D01*
X72685714Y18949943D02*
X72733333Y18997562D01*
X72733333Y18997562D02*
X72828571Y19045181D01*
X72828571Y19045181D02*
X73019047Y19045181D01*
X73019047Y19045181D02*
X73114285Y18997562D01*
X73114285Y18997562D02*
X73161904Y18949943D01*
X73161904Y18949943D02*
X73209523Y18854705D01*
X73209523Y18854705D02*
X73209523Y18807086D01*
X73209523Y18807086D02*
X73161904Y18711848D01*
X73161904Y18711848D02*
X73114285Y18664229D01*
X73114285Y18664229D02*
X73019047Y18616610D01*
X73019047Y18616610D02*
X72828571Y18616610D01*
X72828571Y18616610D02*
X72733333Y18568991D01*
X72733333Y18568991D02*
X72685714Y18521372D01*
X72685714Y18521372D02*
X72638095Y18426134D01*
X72638095Y18426134D02*
X72638095Y18235658D01*
X72638095Y18235658D02*
X72685714Y18140420D01*
X72685714Y18140420D02*
X72733333Y18092800D01*
X72733333Y18092800D02*
X72828571Y18045181D01*
X72828571Y18045181D02*
X73019047Y18045181D01*
X73019047Y18045181D02*
X73114285Y18092800D01*
X73114285Y18092800D02*
X73161904Y18140420D01*
X73161904Y18140420D02*
X73209523Y18235658D01*
X73209523Y18235658D02*
X73209523Y18426134D01*
X73209523Y18426134D02*
X73161904Y18521372D01*
X73161904Y18521372D02*
X73114285Y18568991D01*
X73114285Y18568991D02*
X73019047Y18616610D01*
X73828571Y19045181D02*
X73923809Y19045181D01*
X73923809Y19045181D02*
X74019047Y18997562D01*
X74019047Y18997562D02*
X74066666Y18949943D01*
X74066666Y18949943D02*
X74114285Y18854705D01*
X74114285Y18854705D02*
X74161904Y18664229D01*
X74161904Y18664229D02*
X74161904Y18426134D01*
X74161904Y18426134D02*
X74114285Y18235658D01*
X74114285Y18235658D02*
X74066666Y18140420D01*
X74066666Y18140420D02*
X74019047Y18092800D01*
X74019047Y18092800D02*
X73923809Y18045181D01*
X73923809Y18045181D02*
X73828571Y18045181D01*
X73828571Y18045181D02*
X73733333Y18092800D01*
X73733333Y18092800D02*
X73685714Y18140420D01*
X73685714Y18140420D02*
X73638095Y18235658D01*
X73638095Y18235658D02*
X73590476Y18426134D01*
X73590476Y18426134D02*
X73590476Y18664229D01*
X73590476Y18664229D02*
X73638095Y18854705D01*
X73638095Y18854705D02*
X73685714Y18949943D01*
X73685714Y18949943D02*
X73733333Y18997562D01*
X73733333Y18997562D02*
X73828571Y19045181D01*
X74923809Y18568991D02*
X75066666Y18521372D01*
X75066666Y18521372D02*
X75114285Y18473753D01*
X75114285Y18473753D02*
X75161904Y18378515D01*
X75161904Y18378515D02*
X75161904Y18235658D01*
X75161904Y18235658D02*
X75114285Y18140420D01*
X75114285Y18140420D02*
X75066666Y18092800D01*
X75066666Y18092800D02*
X74971428Y18045181D01*
X74971428Y18045181D02*
X74590476Y18045181D01*
X74590476Y18045181D02*
X74590476Y19045181D01*
X74590476Y19045181D02*
X74923809Y19045181D01*
X74923809Y19045181D02*
X75019047Y18997562D01*
X75019047Y18997562D02*
X75066666Y18949943D01*
X75066666Y18949943D02*
X75114285Y18854705D01*
X75114285Y18854705D02*
X75114285Y18759467D01*
X75114285Y18759467D02*
X75066666Y18664229D01*
X75066666Y18664229D02*
X75019047Y18616610D01*
X75019047Y18616610D02*
X74923809Y18568991D01*
X74923809Y18568991D02*
X74590476Y18568991D01*
X76114285Y18045181D02*
X75542857Y18045181D01*
X75828571Y18045181D02*
X75828571Y19045181D01*
X75828571Y19045181D02*
X75733333Y18902324D01*
X75733333Y18902324D02*
X75638095Y18807086D01*
X75638095Y18807086D02*
X75542857Y18759467D01*
X56004761Y3940420D02*
X55957142Y3892800D01*
X55957142Y3892800D02*
X55814285Y3845181D01*
X55814285Y3845181D02*
X55719047Y3845181D01*
X55719047Y3845181D02*
X55576190Y3892800D01*
X55576190Y3892800D02*
X55480952Y3988039D01*
X55480952Y3988039D02*
X55433333Y4083277D01*
X55433333Y4083277D02*
X55385714Y4273753D01*
X55385714Y4273753D02*
X55385714Y4416610D01*
X55385714Y4416610D02*
X55433333Y4607086D01*
X55433333Y4607086D02*
X55480952Y4702324D01*
X55480952Y4702324D02*
X55576190Y4797562D01*
X55576190Y4797562D02*
X55719047Y4845181D01*
X55719047Y4845181D02*
X55814285Y4845181D01*
X55814285Y4845181D02*
X55957142Y4797562D01*
X55957142Y4797562D02*
X56004761Y4749943D01*
X56957142Y3845181D02*
X56385714Y3845181D01*
X56671428Y3845181D02*
X56671428Y4845181D01*
X56671428Y4845181D02*
X56576190Y4702324D01*
X56576190Y4702324D02*
X56480952Y4607086D01*
X56480952Y4607086D02*
X56385714Y4559467D01*
X57290476Y4845181D02*
X57909523Y4845181D01*
X57909523Y4845181D02*
X57576190Y4464229D01*
X57576190Y4464229D02*
X57719047Y4464229D01*
X57719047Y4464229D02*
X57814285Y4416610D01*
X57814285Y4416610D02*
X57861904Y4368991D01*
X57861904Y4368991D02*
X57909523Y4273753D01*
X57909523Y4273753D02*
X57909523Y4035658D01*
X57909523Y4035658D02*
X57861904Y3940420D01*
X57861904Y3940420D02*
X57814285Y3892800D01*
X57814285Y3892800D02*
X57719047Y3845181D01*
X57719047Y3845181D02*
X57433333Y3845181D01*
X57433333Y3845181D02*
X57338095Y3892800D01*
X57338095Y3892800D02*
X57290476Y3940420D01*
X58861904Y3845181D02*
X58290476Y3845181D01*
X58576190Y3845181D02*
X58576190Y4845181D01*
X58576190Y4845181D02*
X58480952Y4702324D01*
X58480952Y4702324D02*
X58385714Y4607086D01*
X58385714Y4607086D02*
X58290476Y4559467D01*
X59861904Y3940420D02*
X59814285Y3892800D01*
X59814285Y3892800D02*
X59671428Y3845181D01*
X59671428Y3845181D02*
X59576190Y3845181D01*
X59576190Y3845181D02*
X59433333Y3892800D01*
X59433333Y3892800D02*
X59338095Y3988039D01*
X59338095Y3988039D02*
X59290476Y4083277D01*
X59290476Y4083277D02*
X59242857Y4273753D01*
X59242857Y4273753D02*
X59242857Y4416610D01*
X59242857Y4416610D02*
X59290476Y4607086D01*
X59290476Y4607086D02*
X59338095Y4702324D01*
X59338095Y4702324D02*
X59433333Y4797562D01*
X59433333Y4797562D02*
X59576190Y4845181D01*
X59576190Y4845181D02*
X59671428Y4845181D01*
X59671428Y4845181D02*
X59814285Y4797562D01*
X59814285Y4797562D02*
X59861904Y4749943D01*
X60814285Y3845181D02*
X60242857Y3845181D01*
X60528571Y3845181D02*
X60528571Y4845181D01*
X60528571Y4845181D02*
X60433333Y4702324D01*
X60433333Y4702324D02*
X60338095Y4607086D01*
X60338095Y4607086D02*
X60242857Y4559467D01*
X17873095Y-38121734D02*
X17873095Y-38931257D01*
X17873095Y-38931257D02*
X17920714Y-39026495D01*
X17920714Y-39026495D02*
X17968333Y-39074115D01*
X17968333Y-39074115D02*
X18063571Y-39121734D01*
X18063571Y-39121734D02*
X18254047Y-39121734D01*
X18254047Y-39121734D02*
X18349285Y-39074115D01*
X18349285Y-39074115D02*
X18396904Y-39026495D01*
X18396904Y-39026495D02*
X18444523Y-38931257D01*
X18444523Y-38931257D02*
X18444523Y-38121734D01*
X19444523Y-39121734D02*
X18873095Y-39121734D01*
X19158809Y-39121734D02*
X19158809Y-38121734D01*
X19158809Y-38121734D02*
X19063571Y-38264591D01*
X19063571Y-38264591D02*
X18968333Y-38359829D01*
X18968333Y-38359829D02*
X18873095Y-38407448D01*
X35504761Y7540420D02*
X35457142Y7492800D01*
X35457142Y7492800D02*
X35314285Y7445181D01*
X35314285Y7445181D02*
X35219047Y7445181D01*
X35219047Y7445181D02*
X35076190Y7492800D01*
X35076190Y7492800D02*
X34980952Y7588039D01*
X34980952Y7588039D02*
X34933333Y7683277D01*
X34933333Y7683277D02*
X34885714Y7873753D01*
X34885714Y7873753D02*
X34885714Y8016610D01*
X34885714Y8016610D02*
X34933333Y8207086D01*
X34933333Y8207086D02*
X34980952Y8302324D01*
X34980952Y8302324D02*
X35076190Y8397562D01*
X35076190Y8397562D02*
X35219047Y8445181D01*
X35219047Y8445181D02*
X35314285Y8445181D01*
X35314285Y8445181D02*
X35457142Y8397562D01*
X35457142Y8397562D02*
X35504761Y8349943D01*
X36457142Y7445181D02*
X35885714Y7445181D01*
X36171428Y7445181D02*
X36171428Y8445181D01*
X36171428Y8445181D02*
X36076190Y8302324D01*
X36076190Y8302324D02*
X35980952Y8207086D01*
X35980952Y8207086D02*
X35885714Y8159467D01*
X37314285Y8111848D02*
X37314285Y7445181D01*
X37076190Y8492800D02*
X36838095Y7778515D01*
X36838095Y7778515D02*
X37457142Y7778515D01*
X37885714Y7445181D02*
X38076190Y7445181D01*
X38076190Y7445181D02*
X38171428Y7492800D01*
X38171428Y7492800D02*
X38219047Y7540420D01*
X38219047Y7540420D02*
X38314285Y7683277D01*
X38314285Y7683277D02*
X38361904Y7873753D01*
X38361904Y7873753D02*
X38361904Y8254705D01*
X38361904Y8254705D02*
X38314285Y8349943D01*
X38314285Y8349943D02*
X38266666Y8397562D01*
X38266666Y8397562D02*
X38171428Y8445181D01*
X38171428Y8445181D02*
X37980952Y8445181D01*
X37980952Y8445181D02*
X37885714Y8397562D01*
X37885714Y8397562D02*
X37838095Y8349943D01*
X37838095Y8349943D02*
X37790476Y8254705D01*
X37790476Y8254705D02*
X37790476Y8016610D01*
X37790476Y8016610D02*
X37838095Y7921372D01*
X37838095Y7921372D02*
X37885714Y7873753D01*
X37885714Y7873753D02*
X37980952Y7826134D01*
X37980952Y7826134D02*
X38171428Y7826134D01*
X38171428Y7826134D02*
X38266666Y7873753D01*
X38266666Y7873753D02*
X38314285Y7921372D01*
X38314285Y7921372D02*
X38361904Y8016610D01*
X39123809Y7968991D02*
X39266666Y7921372D01*
X39266666Y7921372D02*
X39314285Y7873753D01*
X39314285Y7873753D02*
X39361904Y7778515D01*
X39361904Y7778515D02*
X39361904Y7635658D01*
X39361904Y7635658D02*
X39314285Y7540420D01*
X39314285Y7540420D02*
X39266666Y7492800D01*
X39266666Y7492800D02*
X39171428Y7445181D01*
X39171428Y7445181D02*
X38790476Y7445181D01*
X38790476Y7445181D02*
X38790476Y8445181D01*
X38790476Y8445181D02*
X39123809Y8445181D01*
X39123809Y8445181D02*
X39219047Y8397562D01*
X39219047Y8397562D02*
X39266666Y8349943D01*
X39266666Y8349943D02*
X39314285Y8254705D01*
X39314285Y8254705D02*
X39314285Y8159467D01*
X39314285Y8159467D02*
X39266666Y8064229D01*
X39266666Y8064229D02*
X39219047Y8016610D01*
X39219047Y8016610D02*
X39123809Y7968991D01*
X39123809Y7968991D02*
X38790476Y7968991D01*
X40314285Y7445181D02*
X39742857Y7445181D01*
X40028571Y7445181D02*
X40028571Y8445181D01*
X40028571Y8445181D02*
X39933333Y8302324D01*
X39933333Y8302324D02*
X39838095Y8207086D01*
X39838095Y8207086D02*
X39742857Y8159467D01*
X35480952Y-1559580D02*
X35433333Y-1607200D01*
X35433333Y-1607200D02*
X35290476Y-1654819D01*
X35290476Y-1654819D02*
X35195238Y-1654819D01*
X35195238Y-1654819D02*
X35052381Y-1607200D01*
X35052381Y-1607200D02*
X34957143Y-1511961D01*
X34957143Y-1511961D02*
X34909524Y-1416723D01*
X34909524Y-1416723D02*
X34861905Y-1226247D01*
X34861905Y-1226247D02*
X34861905Y-1083390D01*
X34861905Y-1083390D02*
X34909524Y-892914D01*
X34909524Y-892914D02*
X34957143Y-797676D01*
X34957143Y-797676D02*
X35052381Y-702438D01*
X35052381Y-702438D02*
X35195238Y-654819D01*
X35195238Y-654819D02*
X35290476Y-654819D01*
X35290476Y-654819D02*
X35433333Y-702438D01*
X35433333Y-702438D02*
X35480952Y-750057D01*
X36433333Y-1654819D02*
X35861905Y-1654819D01*
X36147619Y-1654819D02*
X36147619Y-654819D01*
X36147619Y-654819D02*
X36052381Y-797676D01*
X36052381Y-797676D02*
X35957143Y-892914D01*
X35957143Y-892914D02*
X35861905Y-940533D01*
X37290476Y-988152D02*
X37290476Y-1654819D01*
X37052381Y-607200D02*
X36814286Y-1321485D01*
X36814286Y-1321485D02*
X37433333Y-1321485D01*
X37861905Y-1654819D02*
X38052381Y-1654819D01*
X38052381Y-1654819D02*
X38147619Y-1607200D01*
X38147619Y-1607200D02*
X38195238Y-1559580D01*
X38195238Y-1559580D02*
X38290476Y-1416723D01*
X38290476Y-1416723D02*
X38338095Y-1226247D01*
X38338095Y-1226247D02*
X38338095Y-845295D01*
X38338095Y-845295D02*
X38290476Y-750057D01*
X38290476Y-750057D02*
X38242857Y-702438D01*
X38242857Y-702438D02*
X38147619Y-654819D01*
X38147619Y-654819D02*
X37957143Y-654819D01*
X37957143Y-654819D02*
X37861905Y-702438D01*
X37861905Y-702438D02*
X37814286Y-750057D01*
X37814286Y-750057D02*
X37766667Y-845295D01*
X37766667Y-845295D02*
X37766667Y-1083390D01*
X37766667Y-1083390D02*
X37814286Y-1178628D01*
X37814286Y-1178628D02*
X37861905Y-1226247D01*
X37861905Y-1226247D02*
X37957143Y-1273866D01*
X37957143Y-1273866D02*
X38147619Y-1273866D01*
X38147619Y-1273866D02*
X38242857Y-1226247D01*
X38242857Y-1226247D02*
X38290476Y-1178628D01*
X38290476Y-1178628D02*
X38338095Y-1083390D01*
X57530952Y-4059580D02*
X57483333Y-4107200D01*
X57483333Y-4107200D02*
X57340476Y-4154819D01*
X57340476Y-4154819D02*
X57245238Y-4154819D01*
X57245238Y-4154819D02*
X57102381Y-4107200D01*
X57102381Y-4107200D02*
X57007143Y-4011961D01*
X57007143Y-4011961D02*
X56959524Y-3916723D01*
X56959524Y-3916723D02*
X56911905Y-3726247D01*
X56911905Y-3726247D02*
X56911905Y-3583390D01*
X56911905Y-3583390D02*
X56959524Y-3392914D01*
X56959524Y-3392914D02*
X57007143Y-3297676D01*
X57007143Y-3297676D02*
X57102381Y-3202438D01*
X57102381Y-3202438D02*
X57245238Y-3154819D01*
X57245238Y-3154819D02*
X57340476Y-3154819D01*
X57340476Y-3154819D02*
X57483333Y-3202438D01*
X57483333Y-3202438D02*
X57530952Y-3250057D01*
X58483333Y-4154819D02*
X57911905Y-4154819D01*
X58197619Y-4154819D02*
X58197619Y-3154819D01*
X58197619Y-3154819D02*
X58102381Y-3297676D01*
X58102381Y-3297676D02*
X58007143Y-3392914D01*
X58007143Y-3392914D02*
X57911905Y-3440533D01*
X58816667Y-3154819D02*
X59435714Y-3154819D01*
X59435714Y-3154819D02*
X59102381Y-3535771D01*
X59102381Y-3535771D02*
X59245238Y-3535771D01*
X59245238Y-3535771D02*
X59340476Y-3583390D01*
X59340476Y-3583390D02*
X59388095Y-3631009D01*
X59388095Y-3631009D02*
X59435714Y-3726247D01*
X59435714Y-3726247D02*
X59435714Y-3964342D01*
X59435714Y-3964342D02*
X59388095Y-4059580D01*
X59388095Y-4059580D02*
X59340476Y-4107200D01*
X59340476Y-4107200D02*
X59245238Y-4154819D01*
X59245238Y-4154819D02*
X58959524Y-4154819D01*
X58959524Y-4154819D02*
X58864286Y-4107200D01*
X58864286Y-4107200D02*
X58816667Y-4059580D01*
X60388095Y-4154819D02*
X59816667Y-4154819D01*
X60102381Y-4154819D02*
X60102381Y-3154819D01*
X60102381Y-3154819D02*
X60007143Y-3297676D01*
X60007143Y-3297676D02*
X59911905Y-3392914D01*
X59911905Y-3392914D02*
X59816667Y-3440533D01*
X63971429Y-8504819D02*
X63971429Y-7504819D01*
X65019047Y-8409580D02*
X64971428Y-8457200D01*
X64971428Y-8457200D02*
X64828571Y-8504819D01*
X64828571Y-8504819D02*
X64733333Y-8504819D01*
X64733333Y-8504819D02*
X64590476Y-8457200D01*
X64590476Y-8457200D02*
X64495238Y-8361961D01*
X64495238Y-8361961D02*
X64447619Y-8266723D01*
X64447619Y-8266723D02*
X64400000Y-8076247D01*
X64400000Y-8076247D02*
X64400000Y-7933390D01*
X64400000Y-7933390D02*
X64447619Y-7742914D01*
X64447619Y-7742914D02*
X64495238Y-7647676D01*
X64495238Y-7647676D02*
X64590476Y-7552438D01*
X64590476Y-7552438D02*
X64733333Y-7504819D01*
X64733333Y-7504819D02*
X64828571Y-7504819D01*
X64828571Y-7504819D02*
X64971428Y-7552438D01*
X64971428Y-7552438D02*
X65019047Y-7600057D01*
X65971428Y-8504819D02*
X65400000Y-8504819D01*
X65685714Y-8504819D02*
X65685714Y-7504819D01*
X65685714Y-7504819D02*
X65590476Y-7647676D01*
X65590476Y-7647676D02*
X65495238Y-7742914D01*
X65495238Y-7742914D02*
X65400000Y-7790533D01*
X66304762Y-7504819D02*
X66923809Y-7504819D01*
X66923809Y-7504819D02*
X66590476Y-7885771D01*
X66590476Y-7885771D02*
X66733333Y-7885771D01*
X66733333Y-7885771D02*
X66828571Y-7933390D01*
X66828571Y-7933390D02*
X66876190Y-7981009D01*
X66876190Y-7981009D02*
X66923809Y-8076247D01*
X66923809Y-8076247D02*
X66923809Y-8314342D01*
X66923809Y-8314342D02*
X66876190Y-8409580D01*
X66876190Y-8409580D02*
X66828571Y-8457200D01*
X66828571Y-8457200D02*
X66733333Y-8504819D01*
X66733333Y-8504819D02*
X66447619Y-8504819D01*
X66447619Y-8504819D02*
X66352381Y-8457200D01*
X66352381Y-8457200D02*
X66304762Y-8409580D01*
X67876190Y-8504819D02*
X67304762Y-8504819D01*
X67590476Y-8504819D02*
X67590476Y-7504819D01*
X67590476Y-7504819D02*
X67495238Y-7647676D01*
X67495238Y-7647676D02*
X67400000Y-7742914D01*
X67400000Y-7742914D02*
X67304762Y-7790533D01*
X31859580Y-37566666D02*
X31907200Y-37614285D01*
X31907200Y-37614285D02*
X31954819Y-37757142D01*
X31954819Y-37757142D02*
X31954819Y-37852380D01*
X31954819Y-37852380D02*
X31907200Y-37995237D01*
X31907200Y-37995237D02*
X31811961Y-38090475D01*
X31811961Y-38090475D02*
X31716723Y-38138094D01*
X31716723Y-38138094D02*
X31526247Y-38185713D01*
X31526247Y-38185713D02*
X31383390Y-38185713D01*
X31383390Y-38185713D02*
X31192914Y-38138094D01*
X31192914Y-38138094D02*
X31097676Y-38090475D01*
X31097676Y-38090475D02*
X31002438Y-37995237D01*
X31002438Y-37995237D02*
X30954819Y-37852380D01*
X30954819Y-37852380D02*
X30954819Y-37757142D01*
X30954819Y-37757142D02*
X31002438Y-37614285D01*
X31002438Y-37614285D02*
X31050057Y-37566666D01*
X31954819Y-36614285D02*
X31954819Y-37185713D01*
X31954819Y-36899999D02*
X30954819Y-36899999D01*
X30954819Y-36899999D02*
X31097676Y-36995237D01*
X31097676Y-36995237D02*
X31192914Y-37090475D01*
X31192914Y-37090475D02*
X31240533Y-37185713D01*
X41395238Y2920181D02*
X41395238Y3920181D01*
X42442856Y3015420D02*
X42395237Y2967800D01*
X42395237Y2967800D02*
X42252380Y2920181D01*
X42252380Y2920181D02*
X42157142Y2920181D01*
X42157142Y2920181D02*
X42014285Y2967800D01*
X42014285Y2967800D02*
X41919047Y3063039D01*
X41919047Y3063039D02*
X41871428Y3158277D01*
X41871428Y3158277D02*
X41823809Y3348753D01*
X41823809Y3348753D02*
X41823809Y3491610D01*
X41823809Y3491610D02*
X41871428Y3682086D01*
X41871428Y3682086D02*
X41919047Y3777324D01*
X41919047Y3777324D02*
X42014285Y3872562D01*
X42014285Y3872562D02*
X42157142Y3920181D01*
X42157142Y3920181D02*
X42252380Y3920181D01*
X42252380Y3920181D02*
X42395237Y3872562D01*
X42395237Y3872562D02*
X42442856Y3824943D01*
X43395237Y2920181D02*
X42823809Y2920181D01*
X43109523Y2920181D02*
X43109523Y3920181D01*
X43109523Y3920181D02*
X43014285Y3777324D01*
X43014285Y3777324D02*
X42919047Y3682086D01*
X42919047Y3682086D02*
X42823809Y3634467D01*
X44252380Y3586848D02*
X44252380Y2920181D01*
X44014285Y3967800D02*
X43776190Y3253515D01*
X43776190Y3253515D02*
X44395237Y3253515D01*
X44823809Y2920181D02*
X45014285Y2920181D01*
X45014285Y2920181D02*
X45109523Y2967800D01*
X45109523Y2967800D02*
X45157142Y3015420D01*
X45157142Y3015420D02*
X45252380Y3158277D01*
X45252380Y3158277D02*
X45299999Y3348753D01*
X45299999Y3348753D02*
X45299999Y3729705D01*
X45299999Y3729705D02*
X45252380Y3824943D01*
X45252380Y3824943D02*
X45204761Y3872562D01*
X45204761Y3872562D02*
X45109523Y3920181D01*
X45109523Y3920181D02*
X44919047Y3920181D01*
X44919047Y3920181D02*
X44823809Y3872562D01*
X44823809Y3872562D02*
X44776190Y3824943D01*
X44776190Y3824943D02*
X44728571Y3729705D01*
X44728571Y3729705D02*
X44728571Y3491610D01*
X44728571Y3491610D02*
X44776190Y3396372D01*
X44776190Y3396372D02*
X44823809Y3348753D01*
X44823809Y3348753D02*
X44919047Y3301134D01*
X44919047Y3301134D02*
X45109523Y3301134D01*
X45109523Y3301134D02*
X45204761Y3348753D01*
X45204761Y3348753D02*
X45252380Y3396372D01*
X45252380Y3396372D02*
X45299999Y3491610D01*
X46061904Y3443991D02*
X46204761Y3396372D01*
X46204761Y3396372D02*
X46252380Y3348753D01*
X46252380Y3348753D02*
X46299999Y3253515D01*
X46299999Y3253515D02*
X46299999Y3110658D01*
X46299999Y3110658D02*
X46252380Y3015420D01*
X46252380Y3015420D02*
X46204761Y2967800D01*
X46204761Y2967800D02*
X46109523Y2920181D01*
X46109523Y2920181D02*
X45728571Y2920181D01*
X45728571Y2920181D02*
X45728571Y3920181D01*
X45728571Y3920181D02*
X46061904Y3920181D01*
X46061904Y3920181D02*
X46157142Y3872562D01*
X46157142Y3872562D02*
X46204761Y3824943D01*
X46204761Y3824943D02*
X46252380Y3729705D01*
X46252380Y3729705D02*
X46252380Y3634467D01*
X46252380Y3634467D02*
X46204761Y3539229D01*
X46204761Y3539229D02*
X46157142Y3491610D01*
X46157142Y3491610D02*
X46061904Y3443991D01*
X46061904Y3443991D02*
X45728571Y3443991D01*
X47252380Y2920181D02*
X46680952Y2920181D01*
X46966666Y2920181D02*
X46966666Y3920181D01*
X46966666Y3920181D02*
X46871428Y3777324D01*
X46871428Y3777324D02*
X46776190Y3682086D01*
X46776190Y3682086D02*
X46680952Y3634467D01*
X42771429Y-5954819D02*
X42771429Y-4954819D01*
X43819047Y-5859580D02*
X43771428Y-5907200D01*
X43771428Y-5907200D02*
X43628571Y-5954819D01*
X43628571Y-5954819D02*
X43533333Y-5954819D01*
X43533333Y-5954819D02*
X43390476Y-5907200D01*
X43390476Y-5907200D02*
X43295238Y-5811961D01*
X43295238Y-5811961D02*
X43247619Y-5716723D01*
X43247619Y-5716723D02*
X43200000Y-5526247D01*
X43200000Y-5526247D02*
X43200000Y-5383390D01*
X43200000Y-5383390D02*
X43247619Y-5192914D01*
X43247619Y-5192914D02*
X43295238Y-5097676D01*
X43295238Y-5097676D02*
X43390476Y-5002438D01*
X43390476Y-5002438D02*
X43533333Y-4954819D01*
X43533333Y-4954819D02*
X43628571Y-4954819D01*
X43628571Y-4954819D02*
X43771428Y-5002438D01*
X43771428Y-5002438D02*
X43819047Y-5050057D01*
X44771428Y-5954819D02*
X44200000Y-5954819D01*
X44485714Y-5954819D02*
X44485714Y-4954819D01*
X44485714Y-4954819D02*
X44390476Y-5097676D01*
X44390476Y-5097676D02*
X44295238Y-5192914D01*
X44295238Y-5192914D02*
X44200000Y-5240533D01*
X45628571Y-5288152D02*
X45628571Y-5954819D01*
X45390476Y-4907200D02*
X45152381Y-5621485D01*
X45152381Y-5621485D02*
X45771428Y-5621485D01*
X46200000Y-5954819D02*
X46390476Y-5954819D01*
X46390476Y-5954819D02*
X46485714Y-5907200D01*
X46485714Y-5907200D02*
X46533333Y-5859580D01*
X46533333Y-5859580D02*
X46628571Y-5716723D01*
X46628571Y-5716723D02*
X46676190Y-5526247D01*
X46676190Y-5526247D02*
X46676190Y-5145295D01*
X46676190Y-5145295D02*
X46628571Y-5050057D01*
X46628571Y-5050057D02*
X46580952Y-5002438D01*
X46580952Y-5002438D02*
X46485714Y-4954819D01*
X46485714Y-4954819D02*
X46295238Y-4954819D01*
X46295238Y-4954819D02*
X46200000Y-5002438D01*
X46200000Y-5002438D02*
X46152381Y-5050057D01*
X46152381Y-5050057D02*
X46104762Y-5145295D01*
X46104762Y-5145295D02*
X46104762Y-5383390D01*
X46104762Y-5383390D02*
X46152381Y-5478628D01*
X46152381Y-5478628D02*
X46200000Y-5526247D01*
X46200000Y-5526247D02*
X46295238Y-5573866D01*
X46295238Y-5573866D02*
X46485714Y-5573866D01*
X46485714Y-5573866D02*
X46580952Y-5526247D01*
X46580952Y-5526247D02*
X46628571Y-5478628D01*
X46628571Y-5478628D02*
X46676190Y-5383390D01*
X16395238Y-14254819D02*
X16395238Y-13254819D01*
X17442856Y-14159580D02*
X17395237Y-14207200D01*
X17395237Y-14207200D02*
X17252380Y-14254819D01*
X17252380Y-14254819D02*
X17157142Y-14254819D01*
X17157142Y-14254819D02*
X17014285Y-14207200D01*
X17014285Y-14207200D02*
X16919047Y-14111961D01*
X16919047Y-14111961D02*
X16871428Y-14016723D01*
X16871428Y-14016723D02*
X16823809Y-13826247D01*
X16823809Y-13826247D02*
X16823809Y-13683390D01*
X16823809Y-13683390D02*
X16871428Y-13492914D01*
X16871428Y-13492914D02*
X16919047Y-13397676D01*
X16919047Y-13397676D02*
X17014285Y-13302438D01*
X17014285Y-13302438D02*
X17157142Y-13254819D01*
X17157142Y-13254819D02*
X17252380Y-13254819D01*
X17252380Y-13254819D02*
X17395237Y-13302438D01*
X17395237Y-13302438D02*
X17442856Y-13350057D01*
X18395237Y-14254819D02*
X17823809Y-14254819D01*
X18109523Y-14254819D02*
X18109523Y-13254819D01*
X18109523Y-13254819D02*
X18014285Y-13397676D01*
X18014285Y-13397676D02*
X17919047Y-13492914D01*
X17919047Y-13492914D02*
X17823809Y-13540533D01*
X19252380Y-13588152D02*
X19252380Y-14254819D01*
X19014285Y-13207200D02*
X18776190Y-13921485D01*
X18776190Y-13921485D02*
X19395237Y-13921485D01*
X19680952Y-13254819D02*
X20347618Y-13254819D01*
X20347618Y-13254819D02*
X19919047Y-14254819D01*
X21061904Y-13731009D02*
X21204761Y-13778628D01*
X21204761Y-13778628D02*
X21252380Y-13826247D01*
X21252380Y-13826247D02*
X21299999Y-13921485D01*
X21299999Y-13921485D02*
X21299999Y-14064342D01*
X21299999Y-14064342D02*
X21252380Y-14159580D01*
X21252380Y-14159580D02*
X21204761Y-14207200D01*
X21204761Y-14207200D02*
X21109523Y-14254819D01*
X21109523Y-14254819D02*
X20728571Y-14254819D01*
X20728571Y-14254819D02*
X20728571Y-13254819D01*
X20728571Y-13254819D02*
X21061904Y-13254819D01*
X21061904Y-13254819D02*
X21157142Y-13302438D01*
X21157142Y-13302438D02*
X21204761Y-13350057D01*
X21204761Y-13350057D02*
X21252380Y-13445295D01*
X21252380Y-13445295D02*
X21252380Y-13540533D01*
X21252380Y-13540533D02*
X21204761Y-13635771D01*
X21204761Y-13635771D02*
X21157142Y-13683390D01*
X21157142Y-13683390D02*
X21061904Y-13731009D01*
X21061904Y-13731009D02*
X20728571Y-13731009D01*
X22252380Y-14254819D02*
X21680952Y-14254819D01*
X21966666Y-14254819D02*
X21966666Y-13254819D01*
X21966666Y-13254819D02*
X21871428Y-13397676D01*
X21871428Y-13397676D02*
X21776190Y-13492914D01*
X21776190Y-13492914D02*
X21680952Y-13540533D01*
X62925238Y7370181D02*
X62925238Y8370181D01*
X63972856Y7465420D02*
X63925237Y7417800D01*
X63925237Y7417800D02*
X63782380Y7370181D01*
X63782380Y7370181D02*
X63687142Y7370181D01*
X63687142Y7370181D02*
X63544285Y7417800D01*
X63544285Y7417800D02*
X63449047Y7513039D01*
X63449047Y7513039D02*
X63401428Y7608277D01*
X63401428Y7608277D02*
X63353809Y7798753D01*
X63353809Y7798753D02*
X63353809Y7941610D01*
X63353809Y7941610D02*
X63401428Y8132086D01*
X63401428Y8132086D02*
X63449047Y8227324D01*
X63449047Y8227324D02*
X63544285Y8322562D01*
X63544285Y8322562D02*
X63687142Y8370181D01*
X63687142Y8370181D02*
X63782380Y8370181D01*
X63782380Y8370181D02*
X63925237Y8322562D01*
X63925237Y8322562D02*
X63972856Y8274943D01*
X64925237Y7370181D02*
X64353809Y7370181D01*
X64639523Y7370181D02*
X64639523Y8370181D01*
X64639523Y8370181D02*
X64544285Y8227324D01*
X64544285Y8227324D02*
X64449047Y8132086D01*
X64449047Y8132086D02*
X64353809Y8084467D01*
X65258571Y8370181D02*
X65877618Y8370181D01*
X65877618Y8370181D02*
X65544285Y7989229D01*
X65544285Y7989229D02*
X65687142Y7989229D01*
X65687142Y7989229D02*
X65782380Y7941610D01*
X65782380Y7941610D02*
X65829999Y7893991D01*
X65829999Y7893991D02*
X65877618Y7798753D01*
X65877618Y7798753D02*
X65877618Y7560658D01*
X65877618Y7560658D02*
X65829999Y7465420D01*
X65829999Y7465420D02*
X65782380Y7417800D01*
X65782380Y7417800D02*
X65687142Y7370181D01*
X65687142Y7370181D02*
X65401428Y7370181D01*
X65401428Y7370181D02*
X65306190Y7417800D01*
X65306190Y7417800D02*
X65258571Y7465420D01*
X66829999Y7370181D02*
X66258571Y7370181D01*
X66544285Y7370181D02*
X66544285Y8370181D01*
X66544285Y8370181D02*
X66449047Y8227324D01*
X66449047Y8227324D02*
X66353809Y8132086D01*
X66353809Y8132086D02*
X66258571Y8084467D01*
X67591904Y7893991D02*
X67734761Y7846372D01*
X67734761Y7846372D02*
X67782380Y7798753D01*
X67782380Y7798753D02*
X67829999Y7703515D01*
X67829999Y7703515D02*
X67829999Y7560658D01*
X67829999Y7560658D02*
X67782380Y7465420D01*
X67782380Y7465420D02*
X67734761Y7417800D01*
X67734761Y7417800D02*
X67639523Y7370181D01*
X67639523Y7370181D02*
X67258571Y7370181D01*
X67258571Y7370181D02*
X67258571Y8370181D01*
X67258571Y8370181D02*
X67591904Y8370181D01*
X67591904Y8370181D02*
X67687142Y8322562D01*
X67687142Y8322562D02*
X67734761Y8274943D01*
X67734761Y8274943D02*
X67782380Y8179705D01*
X67782380Y8179705D02*
X67782380Y8084467D01*
X67782380Y8084467D02*
X67734761Y7989229D01*
X67734761Y7989229D02*
X67687142Y7941610D01*
X67687142Y7941610D02*
X67591904Y7893991D01*
X67591904Y7893991D02*
X67258571Y7893991D01*
X68782380Y7370181D02*
X68210952Y7370181D01*
X68496666Y7370181D02*
X68496666Y8370181D01*
X68496666Y8370181D02*
X68401428Y8227324D01*
X68401428Y8227324D02*
X68306190Y8132086D01*
X68306190Y8132086D02*
X68210952Y8084467D01*
%TO.C,C2*%
D13*
X29065000Y-29761252D02*
X29065000Y-29238748D01*
X30535000Y-29761252D02*
X30535000Y-29238748D01*
%TO.C,C131B1*%
X59261252Y11035000D02*
X58738748Y11035000D01*
X59261252Y9565000D02*
X58738748Y9565000D01*
%TO.C,C147B1*%
X11388748Y-9765000D02*
X11911252Y-9765000D01*
X11388748Y-11235000D02*
X11911252Y-11235000D01*
%TO.C,IC180B1*%
X60765000Y21160000D02*
X60830000Y21160000D01*
X60765000Y17040000D02*
X60765000Y21160000D01*
X60830000Y17040000D02*
X60765000Y17040000D01*
X69570000Y21160000D02*
X69635000Y21160000D01*
X69635000Y21160000D02*
X69635000Y17040000D01*
X69635000Y17040000D02*
X69570000Y17040000D01*
X69570000Y21700000D02*
X69900000Y21940000D01*
X69900000Y21460000D01*
X69570000Y21700000D01*
G36*
X69900000Y21460000D02*
G01*
X69570000Y21700000D01*
X69900000Y21940000D01*
X69900000Y21460000D01*
G37*
%TO.C,U2*%
X10825000Y-22648830D02*
X11327500Y-22648830D01*
X10825000Y-30488830D02*
X10825000Y-22648830D01*
X10853479Y-30488830D02*
X10825000Y-30488830D01*
X11327500Y-30488830D02*
X10888737Y-30488830D01*
X27640000Y-22648830D02*
X28142500Y-22648830D01*
X28142500Y-22648830D02*
X28142500Y-30488830D01*
X28142500Y-30488830D02*
X27640000Y-30488830D01*
X11322500Y-31098830D02*
X10475000Y-31711915D01*
X10475000Y-30485745D01*
X11322500Y-31098830D01*
G36*
X11322500Y-31098830D02*
G01*
X10475000Y-31711915D01*
X10475000Y-30485745D01*
X11322500Y-31098830D01*
G37*
%TO.C,IC157B1*%
X40765000Y19760000D02*
X40830000Y19760000D01*
X40765000Y15640000D02*
X40765000Y19760000D01*
X40830000Y15640000D02*
X40765000Y15640000D01*
X49570000Y19760000D02*
X49635000Y19760000D01*
X49635000Y19760000D02*
X49635000Y15640000D01*
X49635000Y15640000D02*
X49570000Y15640000D01*
X49570000Y20300000D02*
X49900000Y20540000D01*
X49900000Y20060000D01*
X49570000Y20300000D01*
G36*
X49900000Y20060000D02*
G01*
X49570000Y20300000D01*
X49900000Y20540000D01*
X49900000Y20060000D01*
G37*
%TO.C,C157B1*%
X52461252Y15835000D02*
X51938748Y15835000D01*
X52461252Y14365000D02*
X51938748Y14365000D01*
%TO.C,IC131C1*%
X61365000Y2060000D02*
X61430000Y2060000D01*
X61365000Y-2060000D02*
X61365000Y2060000D01*
X61430000Y-2060000D02*
X61365000Y-2060000D01*
X70170000Y2060000D02*
X70235000Y2060000D01*
X70235000Y2060000D02*
X70235000Y-2060000D01*
X70235000Y-2060000D02*
X70170000Y-2060000D01*
X61430000Y-2600000D02*
X61100000Y-2840000D01*
X61100000Y-2360000D01*
X61430000Y-2600000D01*
G36*
X61430000Y-2600000D02*
G01*
X61100000Y-2840000D01*
X61100000Y-2360000D01*
X61430000Y-2600000D01*
G37*
%TO.C,J1*%
X74790000Y9390000D02*
X75600000Y9390000D01*
X74790000Y8580000D02*
X74790000Y9390000D01*
X75990000Y9325000D02*
X77210000Y9325000D01*
X76102867Y6675000D02*
X77210000Y6675000D01*
X76102867Y5405000D02*
X77210000Y5405000D01*
X76102867Y4135000D02*
X77210000Y4135000D01*
X76102867Y2865000D02*
X77210000Y2865000D01*
X76102867Y1595000D02*
X77210000Y1595000D01*
X76102867Y325000D02*
X77210000Y325000D01*
X76102867Y-945000D02*
X77210000Y-945000D01*
X76102867Y-2215000D02*
X77210000Y-2215000D01*
X76410000Y7945000D02*
X77210000Y7945000D01*
X77210000Y9325000D02*
X77210000Y-3595000D01*
X77210000Y7620000D02*
X81210000Y7620000D01*
X77210000Y6350000D02*
X81210000Y6350000D01*
X77210000Y5080000D02*
X81210000Y5080000D01*
X77210000Y3810000D02*
X81210000Y3810000D01*
X77210000Y2540000D02*
X81210000Y2540000D01*
X77210000Y1270000D02*
X81210000Y1270000D01*
X77210000Y0D02*
X81210000Y0D01*
X77210000Y-1270000D02*
X81210000Y-1270000D01*
X77210000Y-2540000D02*
X81210000Y-2540000D01*
X77210000Y-3595000D02*
X75990000Y-3595000D01*
X81210000Y7620000D02*
X81210000Y7000000D01*
X81210000Y7000000D02*
X77210000Y7000000D01*
X81210000Y6350000D02*
X81210000Y5730000D01*
X81210000Y5730000D02*
X77210000Y5730000D01*
X81210000Y5080000D02*
X81210000Y4460000D01*
X81210000Y4460000D02*
X77210000Y4460000D01*
X81210000Y3810000D02*
X81210000Y3190000D01*
X81210000Y3190000D02*
X77210000Y3190000D01*
X81210000Y2540000D02*
X81210000Y1920000D01*
X81210000Y1920000D02*
X77210000Y1920000D01*
X81210000Y1270000D02*
X81210000Y650000D01*
X81210000Y650000D02*
X77210000Y650000D01*
X81210000Y0D02*
X81210000Y-620000D01*
X81210000Y-620000D02*
X77210000Y-620000D01*
X81210000Y-1270000D02*
X81210000Y-1890000D01*
X81210000Y-1890000D02*
X77210000Y-1890000D01*
X81210000Y-2540000D02*
X81210000Y-3160000D01*
X81210000Y-3160000D02*
X77210000Y-3160000D01*
X77210000Y8890000D02*
X81210000Y8890000D01*
X81210000Y8270000D01*
X77210000Y8270000D01*
X77210000Y8890000D01*
G36*
X77210000Y8890000D02*
G01*
X81210000Y8890000D01*
X81210000Y8270000D01*
X77210000Y8270000D01*
X77210000Y8890000D01*
G37*
%TO.C,IC147*%
X14335000Y810000D02*
X14540000Y810000D01*
X14335000Y-4710000D02*
X14335000Y810000D01*
X14540000Y-4710000D02*
X14335000Y-4710000D01*
X24550000Y810000D02*
X24755000Y810000D01*
X24755000Y810000D02*
X24755000Y-4710000D01*
X24755000Y-4710000D02*
X24550000Y-4710000D01*
X14535000Y-5350000D02*
X14065000Y-5690000D01*
X14065000Y-5010000D01*
X14535000Y-5350000D01*
G36*
X14535000Y-5350000D02*
G01*
X14065000Y-5690000D01*
X14065000Y-5010000D01*
X14535000Y-5350000D01*
G37*
%TO.C,C147*%
X11538748Y2035000D02*
X12061252Y2035000D01*
X11538748Y565000D02*
X12061252Y565000D01*
%TO.C,C180B1*%
X72211252Y17335000D02*
X71688748Y17335000D01*
X72211252Y15865000D02*
X71688748Y15865000D01*
%TO.C,C131C1*%
X59261252Y3235000D02*
X58738748Y3235000D01*
X59261252Y1765000D02*
X58738748Y1765000D01*
%TO.C,U1*%
X10825000Y-33776915D02*
X11327500Y-33776915D01*
X10825000Y-41616915D02*
X10825000Y-33776915D01*
X10853479Y-41616915D02*
X10825000Y-41616915D01*
X11327500Y-41616915D02*
X10888737Y-41616915D01*
X27640000Y-33776915D02*
X28142500Y-33776915D01*
X28142500Y-33776915D02*
X28142500Y-41616915D01*
X28142500Y-41616915D02*
X27640000Y-41616915D01*
X11322500Y-42226915D02*
X10475000Y-42840000D01*
X10475000Y-41613830D01*
X11322500Y-42226915D01*
G36*
X11322500Y-42226915D02*
G01*
X10475000Y-42840000D01*
X10475000Y-41613830D01*
X11322500Y-42226915D01*
G37*
%TO.C,C149B1*%
X36861252Y6535000D02*
X36338748Y6535000D01*
X36861252Y5065000D02*
X36338748Y5065000D01*
%TO.C,C149*%
X36861252Y-2165000D02*
X36338748Y-2165000D01*
X36861252Y-3635000D02*
X36338748Y-3635000D01*
%TO.C,C131*%
X58911252Y-4765000D02*
X58388748Y-4765000D01*
X58911252Y-6235000D02*
X58388748Y-6235000D01*
%TO.C,IC131*%
X61325000Y-5915000D02*
X61390000Y-5915000D01*
X61325000Y-10035000D02*
X61325000Y-5915000D01*
X61390000Y-10035000D02*
X61325000Y-10035000D01*
X70130000Y-5915000D02*
X70195000Y-5915000D01*
X70195000Y-5915000D02*
X70195000Y-10035000D01*
X70195000Y-10035000D02*
X70130000Y-10035000D01*
X61390000Y-10575000D02*
X61060000Y-10815000D01*
X61060000Y-10335000D01*
X61390000Y-10575000D01*
G36*
X61390000Y-10575000D02*
G01*
X61060000Y-10815000D01*
X61060000Y-10335000D01*
X61390000Y-10575000D01*
G37*
%TO.C,C1*%
X29065000Y-40661252D02*
X29065000Y-40138748D01*
X30535000Y-40661252D02*
X30535000Y-40138748D01*
%TO.C,IC149B1*%
X39265000Y5435000D02*
X39320000Y5435000D01*
X39265000Y1315000D02*
X39265000Y5435000D01*
X39320000Y1315000D02*
X39265000Y1315000D01*
X49330000Y5435000D02*
X49385000Y5435000D01*
X49385000Y5435000D02*
X49385000Y1315000D01*
X49385000Y1315000D02*
X49330000Y1315000D01*
X39315000Y775000D02*
X38985000Y535000D01*
X38985000Y1015000D01*
X39315000Y775000D01*
G36*
X39315000Y775000D02*
G01*
X38985000Y535000D01*
X38985000Y1015000D01*
X39315000Y775000D01*
G37*
%TO.C,IC149*%
X39240000Y-3340000D02*
X39295000Y-3340000D01*
X39240000Y-7460000D02*
X39240000Y-3340000D01*
X39295000Y-7460000D02*
X39240000Y-7460000D01*
X49305000Y-3340000D02*
X49360000Y-3340000D01*
X49360000Y-3340000D02*
X49360000Y-7460000D01*
X49360000Y-7460000D02*
X49305000Y-7460000D01*
X39290000Y-8000000D02*
X38960000Y-8240000D01*
X38960000Y-7760000D01*
X39290000Y-8000000D01*
G36*
X39290000Y-8000000D02*
G01*
X38960000Y-8240000D01*
X38960000Y-7760000D01*
X39290000Y-8000000D01*
G37*
%TO.C,IC147B1*%
X14130000Y-11040000D02*
X14335000Y-11040000D01*
X14130000Y-16560000D02*
X14130000Y-11040000D01*
X14335000Y-16560000D02*
X14130000Y-16560000D01*
X24345000Y-11040000D02*
X24550000Y-11040000D01*
X24550000Y-11040000D02*
X24550000Y-16560000D01*
X24550000Y-16560000D02*
X24345000Y-16560000D01*
X14330000Y-17200000D02*
X13860000Y-17540000D01*
X13860000Y-16860000D01*
X14330000Y-17200000D01*
G36*
X14330000Y-17200000D02*
G01*
X13860000Y-17540000D01*
X13860000Y-16860000D01*
X14330000Y-17200000D01*
G37*
%TO.C,IC131B1*%
X61365000Y9885000D02*
X61430000Y9885000D01*
X61365000Y5765000D02*
X61365000Y9885000D01*
X61430000Y5765000D02*
X61365000Y5765000D01*
X70170000Y9885000D02*
X70235000Y9885000D01*
X70235000Y9885000D02*
X70235000Y5765000D01*
X70235000Y5765000D02*
X70170000Y5765000D01*
X61430000Y5225000D02*
X61100000Y4985000D01*
X61100000Y5465000D01*
X61430000Y5225000D01*
G36*
X61430000Y5225000D02*
G01*
X61100000Y4985000D01*
X61100000Y5465000D01*
X61430000Y5225000D01*
G37*
%TD*%
M02*
